<svg width="55" height="56" viewBox="0 0 55 56" fill="none" xmlns="http://www.w3.org/2000/svg">
<rect y="0.5" width="55" height="55" rx="7" fill="white"/>
<path fill-rule="evenodd" clip-rule="evenodd" d="M21.4719 36.8427H32.5566L32.3522 38.6525H21.6763L21.4719 36.8427ZM38.4676 36.1552C38.9487 36.1919 39.3494 36.4269 39.5111 36.9607C39.7883 37.8736 39.0847 38.9327 38.1382 38.9327H36.7467C35.7529 38.9327 35.4993 38.2573 35.6585 37.7797C35.9307 36.9632 37.403 36.0769 38.4676 36.1552ZM15.5645 36.1552C16.629 36.0769 18.1014 36.9632 18.3731 37.7792C18.5302 38.2573 18.2766 38.9322 17.2834 38.9322H15.8914C14.9443 38.9322 14.2418 37.8731 14.519 36.9602C14.6827 36.4269 15.0809 36.1919 15.5645 36.1552ZM21.0958 33.5184H32.9333L32.7289 35.3282H21.2997L21.0958 33.5184ZM21.5718 30.3146H32.4577C32.8107 30.3146 33.3912 30.5632 33.1713 31.4133L33.1055 32.0044H20.9261L20.8578 31.4133C20.6378 30.5632 21.2208 30.3146 21.5718 30.3146ZM37.6882 20.6746L39.0456 21.4173V29.135L38.4154 29.4805L37.6882 20.6746ZM16.3599 20.6746L15.6328 29.4805L15.002 29.135V21.4173L16.3599 20.6746ZM19.8846 19.3298H34.144C34.8033 19.3298 35.5586 19.7667 35.653 20.897L36.1526 26.7914H17.8789L18.3756 20.897C18.4725 19.7667 19.2257 19.3298 19.8846 19.3298ZM19.289 10.553C17.9312 10.7729 16.9951 11.9626 16.859 13.3987L16.4563 19.2836L14.2965 20.4627L12.5856 21.3736C12.3009 21.5247 12.0312 21.7 12.0312 22.1077V28.445C12.0312 28.8533 12.3009 29.0285 12.5856 29.1802L14.2965 30.0901L15.5278 30.765C13.8305 32.4598 12.7453 33.5555 12.7423 35.996V40.1153C12.7423 41.2376 13.007 42.2339 13.9666 43.194V44.5197C13.9666 45.043 14.3874 45.4668 14.9142 45.4668H17.5942C17.7186 45.4672 17.8419 45.4429 17.9569 45.3954C18.072 45.3479 18.1765 45.2782 18.2645 45.1901C18.3524 45.1021 18.4221 44.9976 18.4695 44.8825C18.517 44.7675 18.5412 44.6442 18.5408 44.5197V43.194H35.4888V44.5197C35.4888 45.043 35.9126 45.4668 36.4358 45.4668H39.1194C39.2436 45.4668 39.3666 45.4423 39.4814 45.3947C39.5961 45.347 39.7003 45.2772 39.788 45.1893C39.8757 45.1013 39.9452 44.9968 39.9925 44.882C40.0397 44.7671 40.0638 44.644 40.0635 44.5197V43.194C41.0261 42.2339 41.2877 41.2376 41.2877 40.1153V35.996C41.2877 33.5555 40.1995 32.4598 38.5022 30.765L39.734 30.0901L41.4469 29.1802C41.7321 29.028 41.9993 28.8533 41.9993 28.445V22.1072C41.9993 21.6995 41.7321 21.5242 41.4469 21.3731L39.734 20.4622L37.5762 19.2831L37.174 13.3982C37.0374 11.9621 36.0989 10.7724 34.7445 10.5525L34.3127 12.6028C34.1113 13.5499 33.8758 14.2976 33.3581 14.8445C32.8404 15.3908 32.0796 15.6263 31.1245 15.6263H22.9086C21.954 15.6263 21.1907 15.3908 20.6725 14.8445C20.1577 14.2976 19.9192 13.5494 19.7204 12.6028L19.289 10.553Z" fill="#2A3A57"/>
<path fill-rule="evenodd" clip-rule="evenodd" d="M33.6521 10.5605L33.2599 12.4276C33.0746 13.3099 32.8567 13.8587 32.577 14.154C32.2973 14.4503 31.9237 14.5994 31.1227 14.5994H22.9109C22.1129 14.5994 21.7368 14.4503 21.4566 14.154C21.1764 13.8587 20.957 13.3099 20.7717 12.4276L20.377 10.5605H33.6521Z" fill="#2A3A57"/>
</svg>
