<svg width="55" height="56" viewBox="0 0 55 56" fill="none" xmlns="http://www.w3.org/2000/svg">
<rect y="0.5" width="55" height="55" rx="7" fill="white"/>
<g clip-path="url(#clip0_211_688)">
<path d="M43.8203 32.8438C43.8203 31.6836 42.8711 30.7344 41.7109 30.7344C42.8711 30.7344 43.8203 29.7852 43.8203 28.625C43.8203 27.4648 42.8711 26.5156 41.7109 26.5156H33.0626C34.3492 22.6554 34.3281 21.425 34.3281 19.0625C34.3281 17.3074 32.8891 15.8984 31.1641 15.8984H30.5312C30.1305 15.8984 29.6242 16.2149 29.5187 16.7C28.4752 20.7627 26.8437 25.4247 22.7266 26.369V41.6311L26.3757 42.8421C27.4515 43.2006 28.5695 43.3906 29.7086 43.3906H39.6016C40.7666 43.3906 41.7109 42.4461 41.7109 41.2812C41.7109 40.1162 40.7666 39.1719 39.6016 39.1719H41.7109C42.8711 39.1719 43.8203 38.2227 43.8203 37.0625C43.8203 35.9023 42.8711 34.9531 41.7109 34.9531C42.8711 34.9531 43.8203 34.0039 43.8203 32.8438ZM17.4531 24.4062H13.2344C12.6514 24.4062 12.1797 24.878 12.1797 25.4609V44.4453C12.1797 45.0283 12.6514 45.5 13.2344 45.5H17.4531C19.1979 45.5 20.6172 44.0807 20.6172 42.3359V27.5703C20.6172 25.8256 19.1979 24.4062 17.4531 24.4062ZM17.4531 41.2812C16.8707 41.2812 16.3984 40.809 16.3984 40.2266C16.3984 39.644 16.8707 39.1719 17.4531 39.1719C18.0356 39.1719 18.5078 39.644 18.5078 40.2266C18.5078 40.809 18.0356 41.2812 17.4531 41.2812ZM26.6889 14.1506L25.1975 12.6592C24.7855 12.2473 24.118 12.2473 23.7061 12.6592C23.2941 13.0712 23.2941 13.7386 23.7061 14.1506L25.1975 15.642C25.6094 16.054 26.2769 16.054 26.6889 15.642C27.1008 15.23 27.1008 14.5626 26.6889 14.1506ZM38.622 12.6592C38.2101 12.2473 37.5426 12.2473 37.1306 12.6592L35.6392 14.1506C35.2273 14.5626 35.2273 15.23 35.6392 15.642C36.0512 16.054 36.7187 16.054 37.1306 15.642L38.622 14.1506C39.034 13.7386 39.034 13.0712 38.622 12.6592ZM31.1641 9.5C30.5734 9.5 30.1094 9.96399 30.1094 10.5547V12.7344C30.1094 13.3251 30.5734 13.7891 31.1641 13.7891C31.7548 13.7891 32.2188 13.3251 32.2188 12.7344V10.5547C32.2188 9.96399 31.7548 9.5 31.1641 9.5Z" fill="#2A3A57"/>
</g>
<defs>
<clipPath id="clip0_211_688">
<rect width="36" height="36" fill="white" transform="translate(10 9.5)"/>
</clipPath>
</defs>
</svg>
