<svg width="56" height="56" viewBox="0 0 56 56" fill="none" xmlns="http://www.w3.org/2000/svg">
<rect x="0.666016" y="0.5" width="55" height="55" rx="7" fill="white"/>
<g clip-path="url(#clip0_211_704)">
<path d="M29.9292 17.0789L31.5902 21.2411L31.5965 21.2474L32.4555 23.3947H42.5607L45.087 17.0789H29.9292ZM33.7186 30.3421H41.2976C41.4651 30.3421 41.6257 30.2756 41.7442 30.1571C41.8626 30.0387 41.9292 29.878 41.9292 29.7105V27.8158H43.1923C43.3598 27.8158 43.5205 27.7493 43.6389 27.6308C43.7574 27.5124 43.8239 27.3517 43.8239 27.1842V25.2895C43.8239 25.122 43.7574 24.9613 43.6389 24.8429C43.5205 24.7244 43.3598 24.6579 43.1923 24.6579H31.8239C31.6564 24.6579 31.4957 24.7244 31.3773 24.8429C31.2589 24.9613 31.1923 25.122 31.1923 25.2895V27.1842C31.1923 27.3517 31.2589 27.5124 31.3773 27.6308C31.4957 27.7493 31.6564 27.8158 31.8239 27.8158H33.087V29.7105C33.087 29.878 33.1536 30.0387 33.272 30.1571C33.3905 30.2756 33.5511 30.3421 33.7186 30.3421ZM36.8765 36.8158V37.9211C36.8765 38.0886 36.9431 38.2492 37.0615 38.3676C37.18 38.4861 37.3406 38.5526 37.5081 38.5526C37.6756 38.5526 37.8363 38.4861 37.9547 38.3676C38.0731 38.2492 38.1397 38.0886 38.1397 37.9211V36.8158L40.0344 35.3947V31.6053H34.9818V35.3947L36.8765 36.8158ZM45.7186 9.5H29.2976C29.1301 9.5 28.9694 9.56654 28.851 9.68499C28.7325 9.80343 28.666 9.96407 28.666 10.1316V15.1842C28.6668 15.2968 28.6977 15.407 28.7554 15.5036C28.8132 15.6002 28.8957 15.6797 28.9944 15.7337C29.1902 15.86 28.2302 15.8158 45.7186 15.8158C45.8861 15.8158 46.0468 15.7492 46.1652 15.6308C46.2837 15.5124 46.3502 15.3517 46.3502 15.1842V10.1316C46.3502 9.96407 46.2837 9.80343 46.1652 9.68499C46.0468 9.56654 45.8861 9.5 45.7186 9.5ZM43.8239 12.6579H34.9818C34.8143 12.6579 34.6536 12.5914 34.5352 12.4729C34.4167 12.3545 34.3502 12.1938 34.3502 12.0263C34.3502 11.8588 34.4167 11.6982 34.5352 11.5797C34.6536 11.4613 34.8143 11.3947 34.9818 11.3947H43.8239C43.9914 11.3947 44.152 11.4613 44.2705 11.5797C44.3889 11.6982 44.4555 11.8588 44.4555 12.0263C44.4555 12.1938 44.3889 12.3545 44.2705 12.4729C44.152 12.5914 43.9914 12.6579 43.8239 12.6579ZM28.786 19.3653L28.3249 16.8389C27.9395 16.6082 27.6519 16.2442 27.5165 15.8158H24.0365C23.887 15.8134 23.7414 15.8641 23.6258 15.9589C23.5101 16.0537 23.4318 16.1866 23.4049 16.3337L22.8555 19.3653C24.7975 18.8406 26.844 18.8406 28.786 19.3653Z" fill="#2A3A57"/>
<path d="M15.4031 30.6579C15.4004 32.8835 16.1109 35.0515 17.4302 36.8439C18.7496 38.6363 20.6084 39.959 22.7343 40.6179C24.8602 41.2769 27.1412 41.2375 29.243 40.5055C31.3449 39.7735 33.1569 38.3875 34.4136 36.5505L33.7188 36.0263V31.6053C33.2163 31.6053 32.7344 31.4056 32.3791 31.0503C32.0237 30.695 31.8241 30.213 31.8241 29.7105V29.0789C31.3216 29.0789 30.8397 28.8793 30.4843 28.524C30.129 28.1687 29.9294 27.6867 29.9294 27.1842V25.2895C29.931 24.9071 30.0483 24.5341 30.2659 24.2196C30.4834 23.9051 30.791 23.6638 31.1483 23.5274L30.2199 21.2095C28.6316 20.4742 26.8839 20.1503 25.1376 20.2676C23.3913 20.3849 21.7026 20.9395 20.2269 21.8806C18.7512 22.8216 17.5359 24.1187 16.6929 25.6526C15.85 27.1864 15.4064 28.9077 15.4031 30.6579ZM23.6136 22.1316C23.7811 22.1316 23.9417 22.1981 24.0602 22.3166C24.1786 22.435 24.2452 22.5956 24.2452 22.7632C24.2452 22.9307 24.1786 23.0913 24.0602 23.2097C23.9417 23.3282 23.7811 23.3947 23.6136 23.3947C23.4461 23.3947 23.2854 23.3282 23.167 23.2097C23.0485 23.0913 22.982 22.9307 22.982 22.7632C22.982 22.5956 23.0485 22.435 23.167 22.3166C23.2854 22.1981 23.4461 22.1316 23.6136 22.1316ZM25.8241 27.8158C26.3862 27.8158 26.9357 27.9825 27.4031 28.2948C27.8705 28.6071 28.2348 29.0509 28.4499 29.5703C28.665 30.0896 28.7213 30.661 28.6116 31.2124C28.5019 31.7637 28.2313 32.2701 27.8338 32.6676C27.4363 33.065 26.9299 33.3357 26.3786 33.4454C25.8273 33.555 25.2558 33.4988 24.7365 33.2837C24.2172 33.0685 23.7733 32.7043 23.461 32.2369C23.1487 31.7695 22.982 31.22 22.982 30.6579C22.9837 29.9046 23.2836 29.1827 23.8163 28.6501C24.3489 28.1174 25.0708 27.8175 25.8241 27.8158ZM21.4346 23.4642C21.5091 23.4194 21.5919 23.3905 21.678 23.3792C21.7641 23.3679 21.8516 23.3744 21.9351 23.3985C22.0186 23.4225 22.0962 23.4635 22.1631 23.5189C22.23 23.5743 22.2847 23.6429 22.3239 23.7204C22.3631 23.7979 22.3859 23.8827 22.3908 23.9694C22.3958 24.0561 22.3828 24.1429 22.3527 24.2243C22.3226 24.3058 22.276 24.3802 22.2158 24.4428C22.1557 24.5055 22.0832 24.555 22.0031 24.5884C19.7799 25.7 18.561 27.9674 18.561 30.9737C18.561 31.1412 18.4944 31.3018 18.376 31.4203C18.2575 31.5387 18.0969 31.6053 17.9294 31.6053C17.7619 31.6053 17.6012 31.5387 17.4828 31.4203C17.3643 31.3018 17.2978 31.1412 17.2978 30.9737C17.2978 27.4621 18.7694 24.7968 21.4346 23.4642ZM24.0367 45.5H27.6115C27.761 45.5024 27.9066 45.4517 28.0223 45.3569C28.1379 45.262 28.2162 45.1292 28.2431 44.9821L28.7925 41.9505C26.8525 42.4741 24.8084 42.4741 22.8683 41.9505L23.4178 44.9821C23.4443 45.1271 23.5207 45.2582 23.6338 45.3528C23.7468 45.4474 23.8894 45.4995 24.0367 45.5ZM15.7441 36.5442L13.9883 39.0705C13.9056 39.1921 13.8679 39.3388 13.8817 39.4852C13.8955 39.6317 13.9601 39.7687 14.0641 39.8726L16.5904 42.3989C16.6952 42.502 16.8326 42.5654 16.979 42.5781C17.1254 42.5907 17.2716 42.552 17.3925 42.4684L19.9188 40.7126C18.1969 39.6989 16.7604 38.2646 15.7441 36.5442ZM32.0452 40.5295L34.881 42.4937C35.0026 42.5764 35.1492 42.6141 35.2957 42.6003C35.4421 42.5865 35.5791 42.5219 35.6831 42.4179C38.3988 39.6642 38.3357 39.8221 38.3736 39.6074C38.0847 39.7557 37.7625 39.8272 37.438 39.8152C37.1135 39.8031 36.7976 39.7079 36.5205 39.5386C36.2434 39.3693 36.0144 39.1316 35.8556 38.8483C35.6968 38.5651 35.6135 38.2458 35.6136 37.921V37.4474L35.4115 37.2895C34.5196 38.5857 33.3745 39.6878 32.0452 40.5295Z" fill="#2A3A57"/>
<path d="M16.5972 18.8979L14.0709 21.4242C13.9678 21.5289 13.9045 21.6664 13.8918 21.8128C13.8791 21.9592 13.9179 22.1054 14.0015 22.2263L15.7572 24.7526C16.7755 23.0206 18.2189 21.5772 19.9509 20.559L17.4246 18.8032C17.2987 18.7159 17.1453 18.6774 16.9931 18.6949C16.8409 18.7123 16.7002 18.7844 16.5972 18.8979ZM10.9825 28.8705V32.4453C10.9801 32.5948 11.0308 32.7404 11.1256 32.856C11.2205 32.9717 11.3533 33.0499 11.5004 33.0768L14.532 33.6263C14.0084 31.6863 14.0084 29.6421 14.532 27.7021L11.5004 28.2516C11.3554 28.2781 11.2243 28.3545 11.1297 28.4675C11.0351 28.5806 10.983 28.7231 10.9825 28.8705Z" fill="#2A3A57"/>
</g>
<defs>
<clipPath id="clip0_211_704">
<rect width="36" height="36" fill="white" transform="translate(10.666 9.5)"/>
</clipPath>
</defs>
</svg>
