<svg width="55" height="56" viewBox="0 0 55 56" fill="none" xmlns="http://www.w3.org/2000/svg">
<rect y="0.5" width="55" height="55" rx="7" fill="white"/>
<path d="M26.7513 29.6436C26.904 29.5727 27.0731 29.5782 27.2258 29.6545L28.3713 30.2273V28.1164H25.4204V30.26L26.7513 29.6436ZM37.9713 37.94C37.6167 37.7545 37.2185 37.7218 36.8585 37.8527L29.2876 40.5691C28.9167 40.7764 28.4858 40.8909 28.0331 40.8909H23.4676C23.1676 40.8909 22.9222 40.6455 22.9222 40.3455C22.9222 40.0455 23.1676 39.8 23.4676 39.8H28.0331C28.2895 39.8 28.5404 39.7345 28.7531 39.6255L28.8349 39.5764C29.1567 39.3745 29.3913 39.0582 29.4513 38.6927C29.4838 38.5008 29.4741 38.3042 29.4227 38.1164C29.3714 37.9287 29.2796 37.7545 29.1539 37.6059C29.0282 37.4573 28.8715 37.338 28.6949 37.2562C28.5183 37.1745 28.3259 37.1324 28.1313 37.1327H24.7222C23.724 37.1327 22.7258 36.7727 21.9131 36.1236C20.5822 35.06 17.8276 33.6418 14.1895 35.8618V42.4836C15.1222 42.4891 17.0749 42.6582 19.7913 43.7218C22.3385 44.72 25.0495 44.9491 27.6349 44.3873C30.2858 43.8091 34.2513 42.6364 38.0476 40.3073C38.3476 40.1218 38.5713 39.8109 38.6531 39.4509C38.7949 38.8509 38.5113 38.2291 37.9713 37.94Z" fill="#2A3A57"/>
<path d="M24.7218 36.0309H28.1309C28.8454 36.0309 29.5163 36.3418 29.98 36.8873C30.2204 37.1716 30.3927 37.5072 30.4834 37.8684C30.5742 38.2295 30.5811 38.6067 30.5036 38.9709L34.2345 37.6345V29.0164C34.2345 28.52 33.8309 28.1218 33.34 28.1218H29.4563V31.1164C29.4564 31.188 29.4423 31.259 29.415 31.3252C29.3876 31.3914 29.3474 31.4516 29.2967 31.5022C29.2461 31.5529 29.1859 31.5931 29.1197 31.6204C29.0535 31.6478 28.9825 31.6619 28.9109 31.6618C28.8291 31.6618 28.7418 31.64 28.6654 31.6018L26.9636 30.7509L25.0927 31.6127C24.9236 31.6891 24.7272 31.6782 24.5691 31.5745C24.4917 31.5258 24.4281 31.4582 24.3842 31.378C24.3403 31.2978 24.3175 31.2078 24.3181 31.1164V28.1218H20.4345C19.9381 28.1218 19.54 28.5255 19.54 29.0164V33.7564C20.8491 34.0618 21.8909 34.7055 22.5891 35.2673C23.2218 35.7691 23.9581 36.0309 24.7218 36.0309ZM13.0981 34.0564L10.7636 34.0236L10.7363 43.9073L13.0654 43.94L13.0981 43.9073V34.0564ZM29.3363 17.7091C28.9073 17.4535 28.4175 17.3179 27.9181 17.3164C26.3745 17.3164 25.12 18.5709 25.12 20.1145C25.12 21.6582 26.3745 22.9127 27.9181 22.9127C28.7145 22.9127 29.4563 22.5691 29.98 21.9964C29.5218 21.8655 29.1072 21.6036 28.8018 21.2327C28.0436 20.3164 28.1363 18.9145 29.0091 18.0364L29.3363 17.7091Z" fill="#2A3A57"/>
<path d="M34.2835 13.8254C34.3653 14.0273 34.3216 14.2618 34.1635 14.42L29.778 18.8054C29.298 19.2854 29.238 20.0436 29.6416 20.5345C29.8707 20.8127 30.1925 20.9764 30.5471 20.9927C30.9016 21.0145 31.2398 20.8782 31.4907 20.6273L35.1289 16.9891C35.1794 16.9385 35.2393 16.8984 35.3053 16.871C35.3713 16.8437 35.442 16.8296 35.5135 16.8296C35.5849 16.8296 35.6556 16.8437 35.7216 16.871C35.7876 16.8984 35.8475 16.9385 35.898 16.9891C36.6398 17.72 37.6216 18.0909 38.6635 18.1018C39.6289 18.0854 40.5344 17.7145 41.2325 17.0545V10.3182H31.7798C30.8635 10.3182 29.9962 10.6782 29.3471 11.3273L27.1816 13.4927H33.7816C33.9998 13.4873 34.2016 13.6236 34.2835 13.8254Z" fill="#2A3A57"/>
<path d="M20.5166 21.2327C21.1342 21.2327 21.6348 20.7321 21.6348 20.1145C21.6348 19.497 21.1342 18.9964 20.5166 18.9964C19.8991 18.9964 19.3984 19.497 19.3984 20.1145C19.3984 20.7321 19.8991 21.2327 20.5166 21.2327Z" fill="#2A3A57"/>
<path d="M42.3294 10.3182H45.2694V16.7327H42.3294V10.3182ZM35.5439 18.1236L32.2657 21.4018C32.0039 21.6636 31.6766 21.8491 31.3275 21.9636C30.6512 23.2073 29.3475 24.0036 27.9185 24.0036C25.7748 24.0036 24.0294 22.2582 24.0294 20.1145C24.0294 17.9709 25.7748 16.2254 27.9185 16.2254C28.7094 16.2254 29.4785 16.4709 30.1221 16.9182L32.4621 14.5782H17.3694C17.1675 14.5782 17.0039 14.7418 17.0039 14.9436V25.2745C17.0039 25.4764 17.1675 25.64 17.3694 25.64H38.473C38.6748 25.64 38.8385 25.4764 38.8385 25.2745V19.1764C38.7839 19.1764 38.7348 19.1873 38.6803 19.1873C37.5294 19.1873 36.433 18.8327 35.5439 18.1236ZM20.5166 22.3236C19.3003 22.3236 18.3075 21.3309 18.3075 20.1145C18.3075 18.8982 19.3003 17.9054 20.5166 17.9054C21.733 17.9054 22.7257 18.8982 22.7257 20.1145C22.7257 21.3309 21.733 22.3236 20.5166 22.3236Z" fill="#2A3A57"/>
</svg>
