<svg width="56" height="56" viewBox="0 0 56 56" fill="none" xmlns="http://www.w3.org/2000/svg">
<rect x="0.333984" y="0.5" width="55" height="55" rx="7.5" fill="white"/>
<g clip-path="url(#clip0_232_1592)">
<path d="M33.9059 42.3567V44.6427C33.9045 44.8696 33.8137 45.0868 33.6532 45.2473C33.4928 45.4077 33.2756 45.4985 33.0487 45.5H21.6209C21.394 45.4985 21.1768 45.4077 21.0164 45.2473C20.8559 45.0868 20.7652 44.8696 20.7637 44.6427V42.3567C20.7618 41.1623 21.088 39.9902 21.7068 38.9685C22.3256 37.9468 23.2131 37.1147 24.2726 36.563C23.3142 35.9082 22.5908 34.9638 22.2081 33.868C21.8254 32.7723 21.8037 31.5828 22.146 30.4738C22.4883 29.3648 23.1768 28.3945 24.1105 27.7051C25.0442 27.0157 26.1742 26.6434 27.3348 26.6427C28.4955 26.6434 29.6254 27.0157 30.5591 27.7051C31.4928 28.3945 32.1813 29.3648 32.5236 30.4738C32.866 31.5828 32.8442 32.7723 32.4615 33.868C32.0788 34.9638 31.3554 35.9082 30.3971 36.563C31.4563 37.1148 32.3436 37.947 32.9622 38.9687C33.5807 39.9904 33.9079 41.1624 33.9059 42.3567Z" fill="#2A3A57"/>
<path d="M40.7623 40.0719V42.3568C40.7608 42.5837 40.67 42.8008 40.5095 42.9613C40.3491 43.1217 40.1319 43.2125 39.905 43.214H35.6187V42.3568C35.6216 41.2343 35.3951 40.1232 34.953 39.0915C34.511 38.0597 33.8628 37.1293 33.0481 36.3571C33.9748 35.1202 34.4761 33.6164 34.4769 32.0709C34.4758 30.7585 34.1138 29.4716 33.4304 28.3511C32.7471 27.2307 31.7687 26.3197 30.6024 25.718C31.5928 24.8421 32.869 24.358 34.1911 24.3568C35.6305 24.3582 37.0105 24.9308 38.0281 25.9487C39.0458 26.9665 39.6181 28.3466 39.6192 29.786C39.6179 30.6673 39.4031 31.5351 38.9932 32.3152C38.5834 33.0954 37.9906 33.7646 37.2658 34.2658C37.8361 34.5628 38.3626 34.952 38.8419 35.42C40.0709 36.6564 40.7612 38.3286 40.7623 40.0719ZM13.9062 40.0719V42.3568C13.9062 42.8259 14.2944 43.214 14.7635 43.214H19.0497V42.3568C19.0497 40.0483 19.997 37.8883 21.6204 36.3571C20.6937 35.1202 20.1924 33.6164 20.1916 32.0709C20.1927 30.7585 20.5547 29.4716 21.2381 28.3511C21.9214 27.2307 22.8998 26.3197 24.0661 25.718C23.0757 24.8421 21.7995 24.358 20.4774 24.3568C19.038 24.3582 17.658 24.9308 16.6404 25.9487C15.6227 26.9665 15.0504 28.3466 15.0492 29.786C15.0506 30.6673 15.2654 31.5351 15.6753 32.3152C16.0851 33.0954 16.6779 33.7646 17.4027 34.2658C16.8312 34.5628 16.3059 34.952 15.8255 35.42C14.5969 36.6565 13.907 38.3287 13.9062 40.0719ZM27.0687 20.5925L24.1213 22.1416C24.0269 22.1912 23.9206 22.2134 23.8143 22.2057C23.708 22.198 23.606 22.1608 23.5198 22.0982C23.4336 22.0356 23.3665 21.9501 23.3263 21.8514C23.2861 21.7528 23.2742 21.6448 23.2921 21.5398L23.8546 18.2581C23.8704 18.1667 23.8636 18.0729 23.835 17.9847C23.8064 17.8965 23.7568 17.8166 23.6904 17.7519L21.3054 15.4276C21.2292 15.3531 21.1753 15.2588 21.1499 15.1553C21.1244 15.0518 21.1284 14.9433 21.1614 14.842C21.1944 14.7406 21.2551 14.6506 21.3366 14.5819C21.4181 14.5132 21.5172 14.4687 21.6226 14.4534L24.9189 13.9741C25.0102 13.9607 25.0968 13.9253 25.1715 13.871C25.2461 13.8167 25.3065 13.7452 25.3475 13.6625L26.8212 10.6768C26.8685 10.5812 26.9415 10.5007 27.032 10.4444C27.1226 10.3881 27.2271 10.3583 27.3337 10.3583C27.4403 10.3583 27.5448 10.3881 27.6354 10.4444C27.7259 10.5007 27.7989 10.5812 27.8461 10.6768L29.3199 13.6625C29.4031 13.8313 29.564 13.9471 29.7496 13.9741L33.0459 14.4534C33.5139 14.5209 33.7006 15.098 33.3609 15.4276L30.9792 17.7519C30.9127 17.8165 30.8628 17.8964 30.834 17.9846C30.8052 18.0728 30.7983 18.1667 30.8139 18.2581L31.3764 21.5398C31.3941 21.6446 31.3822 21.7524 31.342 21.8509C31.3018 21.9494 31.2349 22.0347 31.1489 22.0973C31.0628 22.1598 30.961 22.1971 30.8549 22.205C30.7489 22.2128 30.6427 22.1909 30.5484 22.1416L27.6009 20.5925C27.5188 20.5493 27.4275 20.5268 27.3348 20.5268C27.2421 20.5268 27.1508 20.5493 27.0687 20.5925ZM39.905 16.2253H37.6201C37.3928 16.2253 37.1747 16.1349 37.014 15.9742C36.8532 15.8134 36.7629 15.5954 36.7629 15.368C36.7629 15.1406 36.8532 14.9226 37.014 14.7618C37.1747 14.6011 37.3928 14.5108 37.6201 14.5108H39.905C40.1324 14.5108 40.3504 14.6011 40.5112 14.7618C40.6719 14.9226 40.7623 15.1406 40.7623 15.368C40.7623 15.5954 40.6719 15.8134 40.5112 15.9742C40.3504 16.1349 40.1324 16.2253 39.905 16.2253ZM36.6954 12.2169C36.5008 12.2183 36.3116 12.1534 36.1588 12.0329C36.006 11.9124 35.8989 11.7434 35.855 11.5539C35.8111 11.3643 35.8331 11.1655 35.9174 10.9901C36.0016 10.8147 36.1431 10.6732 36.3185 10.589L38.3728 9.58775C38.474 9.53833 38.5839 9.50933 38.6963 9.5024C38.8087 9.49547 38.9214 9.51075 39.0279 9.54737C39.1344 9.58398 39.2326 9.64122 39.317 9.7158C39.4014 9.79039 39.4703 9.88086 39.5197 9.98206C39.5691 10.0833 39.5981 10.1932 39.605 10.3056C39.612 10.418 39.5967 10.5307 39.5601 10.6372C39.5235 10.7437 39.4662 10.8419 39.3916 10.9263C39.317 11.0107 39.2266 11.0796 39.1254 11.129L37.0711 12.1303C36.9541 12.1872 36.8256 12.2168 36.6954 12.2169ZM38.7485 21.2315C38.6184 21.2318 38.4899 21.2026 38.3728 21.146L36.3185 20.1448C36.1141 20.0451 35.9577 19.8683 35.8836 19.6533C35.8096 19.4384 35.824 19.2028 35.9236 18.9984C36.0233 18.794 36.2 18.6376 36.415 18.5635C36.63 18.4895 36.8656 18.5038 37.07 18.6035L39.1254 19.6048C39.2998 19.6897 39.4402 19.8313 39.5236 20.0064C39.6071 20.1815 39.6288 20.3797 39.585 20.5687C39.5413 20.7577 39.4347 20.9263 39.2828 21.0469C39.1308 21.1674 38.9425 21.2318 38.7485 21.2315ZM17.0484 16.2253H14.7635C14.5361 16.2253 14.3181 16.1349 14.1573 15.9742C13.9966 15.8134 13.9063 15.5954 13.9062 15.368C13.9063 15.1406 13.9966 14.9226 14.1573 14.7618C14.3181 14.6011 14.5361 14.5108 14.7635 14.5108H17.0484C17.2757 14.5108 17.4938 14.6011 17.6545 14.7618C17.8153 14.9226 17.9056 15.1406 17.9056 15.368C17.9056 15.5954 17.8153 15.8134 17.6545 15.9742C17.4938 16.1349 17.2757 16.2253 17.0484 16.2253ZM17.9731 12.2169C17.8429 12.2168 17.7144 12.1872 17.5974 12.1303L15.5431 11.129C15.3387 11.0292 15.1824 10.8523 15.1084 10.6372C15.0345 10.4221 15.049 10.1864 15.1488 9.98206C15.2486 9.77768 15.4255 9.62132 15.6406 9.54737C15.8557 9.47342 16.0914 9.48795 16.2958 9.58775L18.35 10.589C18.5244 10.674 18.6648 10.8156 18.7483 10.9907C18.8318 11.1658 18.8534 11.364 18.8096 11.553C18.7659 11.742 18.6593 11.9105 18.5074 12.0311C18.3555 12.1517 18.1671 12.2172 17.9731 12.2169ZM15.92 21.2315C15.7259 21.2324 15.5372 21.1673 15.3849 21.0468C15.2326 20.9264 15.1258 20.7577 15.082 20.5686C15.0382 20.3795 15.06 20.1811 15.1438 20.0059C15.2275 19.8308 15.3684 19.6893 15.5431 19.6048L17.5974 18.6035C17.6986 18.5541 17.8085 18.5251 17.9209 18.5182C18.0333 18.5112 18.146 18.5265 18.2525 18.5631C18.359 18.5997 18.4573 18.657 18.5416 18.7316C18.626 18.8061 18.6949 18.8966 18.7443 18.9978C18.7937 19.099 18.8227 19.209 18.8297 19.3214C18.8366 19.4338 18.8213 19.5464 18.7847 19.6529C18.7481 19.7595 18.6908 19.8577 18.6163 19.9421C18.5417 20.0265 18.4512 20.0953 18.35 20.1448L16.2958 21.146C16.1785 21.2024 16.0501 21.2317 15.92 21.2315Z" fill="#2A3A57"/>
</g>
<defs>
<clipPath id="clip0_232_1592">
<rect width="36" height="36" fill="white" transform="translate(9.33398 9.5)"/>
</clipPath>
</defs>
</svg>
