<svg width="55" height="55" viewBox="0 0 55 55" fill="none" xmlns="http://www.w3.org/2000/svg">
<rect width="55" height="55" rx="7" fill="white"/>
<g clip-path="url(#clip0_231_1437)">
<path d="M26.7513 29.1435C26.904 29.0726 27.0731 29.078 27.2258 29.1544L28.3713 29.7271V27.6162H25.4204V29.7598L26.7513 29.1435ZM37.9713 37.4398C37.6167 37.2544 37.2185 37.2217 36.8585 37.3526L29.2876 40.0689C28.9167 40.2762 28.4858 40.3908 28.0331 40.3908H23.4676C23.1676 40.3908 22.9222 40.1453 22.9222 39.8453C22.9222 39.5453 23.1676 39.2998 23.4676 39.2998H28.0331C28.2895 39.2998 28.5404 39.2344 28.7531 39.1253L28.8349 39.0762C29.1567 38.8744 29.3913 38.558 29.4513 38.1926C29.4838 38.0007 29.4741 37.804 29.4227 37.6163C29.3714 37.4285 29.2796 37.2543 29.1539 37.1057C29.0282 36.9571 28.8715 36.8378 28.6949 36.7561C28.5183 36.6744 28.3259 36.6322 28.1313 36.6326H24.7222C23.724 36.6326 22.7258 36.2726 21.9131 35.6235C20.5822 34.5598 17.8276 33.1417 14.1895 35.3617V41.9835C15.1222 41.9889 17.0749 42.158 19.7913 43.2217C22.3385 44.2198 25.0495 44.4489 27.6349 43.8871C30.2858 43.3089 34.2513 42.1362 38.0476 39.8071C38.3476 39.6217 38.5713 39.3108 38.6531 38.9508C38.7949 38.3508 38.5113 37.7289 37.9713 37.4398Z" fill="#2A3A57"/>
<path d="M24.7218 35.531H28.1309C28.8454 35.531 29.5163 35.8419 29.98 36.3873C30.2204 36.6716 30.3927 37.0072 30.4834 37.3684C30.5742 37.7296 30.5811 38.1067 30.5036 38.471L34.2345 37.1346V28.5164C34.2345 28.02 33.8309 27.6219 33.34 27.6219H29.4563V30.6164C29.4564 30.6881 29.4423 30.759 29.415 30.8252C29.3876 30.8914 29.3474 30.9516 29.2967 31.0023C29.2461 31.0529 29.1859 31.0931 29.1197 31.1205C29.0535 31.1479 28.9825 31.1619 28.9109 31.1619C28.8291 31.1619 28.7418 31.14 28.6654 31.1019L26.9636 30.251L25.0927 31.1128C24.9236 31.1891 24.7272 31.1782 24.5691 31.0746C24.4917 31.0259 24.4281 30.9582 24.3842 30.878C24.3403 30.7979 24.3175 30.7078 24.3181 30.6164V27.6219H20.4345C19.9381 27.6219 19.54 28.0255 19.54 28.5164V33.2564C20.8491 33.5619 21.8909 34.2055 22.5891 34.7673C23.2218 35.2691 23.9581 35.531 24.7218 35.531ZM13.0981 33.5564L10.7636 33.5237L10.7363 43.4073L13.0654 43.44L13.0981 43.4073V33.5564ZM29.3363 17.2091C28.9073 16.9535 28.4175 16.8179 27.9181 16.8164C26.3745 16.8164 25.12 18.071 25.12 19.6146C25.12 21.1582 26.3745 22.4128 27.9181 22.4128C28.7145 22.4128 29.4563 22.0691 29.98 21.4964C29.5218 21.3655 29.1072 21.1037 28.8018 20.7328C28.0436 19.8164 28.1363 18.4146 29.0091 17.5364L29.3363 17.2091Z" fill="#2A3A57"/>
<path d="M34.2835 13.3254C34.3653 13.5272 34.3216 13.7618 34.1635 13.9199L29.778 18.3054C29.298 18.7854 29.238 19.5436 29.6416 20.0345C29.8707 20.3127 30.1925 20.4763 30.5471 20.4927C30.9016 20.5145 31.2398 20.3781 31.4907 20.1272L35.1289 16.489C35.1794 16.4385 35.2393 16.3983 35.3053 16.371C35.3713 16.3436 35.442 16.3295 35.5135 16.3295C35.5849 16.3295 35.6556 16.3436 35.7216 16.371C35.7876 16.3983 35.8475 16.4385 35.898 16.489C36.6398 17.2199 37.6216 17.5908 38.6635 17.6018C39.6289 17.5854 40.5344 17.2145 41.2325 16.5545V9.81812H31.7798C30.8635 9.81812 29.9962 10.1781 29.3471 10.8272L27.1816 12.9927H33.7816C33.9998 12.9872 34.2016 13.1236 34.2835 13.3254Z" fill="#2A3A57"/>
<path d="M20.5166 20.7327C21.1342 20.7327 21.6348 20.2321 21.6348 19.6145C21.6348 18.997 21.1342 18.4963 20.5166 18.4963C19.8991 18.4963 19.3984 18.997 19.3984 19.6145C19.3984 20.2321 19.8991 20.7327 20.5166 20.7327Z" fill="#2A3A57"/>
<path d="M42.3294 9.81812H45.2694V16.2327H42.3294V9.81812ZM35.5439 17.6236L32.2657 20.9018C32.0039 21.1636 31.6766 21.349 31.3275 21.4636C30.6512 22.7072 29.3475 23.5036 27.9185 23.5036C25.7748 23.5036 24.0294 21.7581 24.0294 19.6145C24.0294 17.4708 25.7748 15.7254 27.9185 15.7254C28.7094 15.7254 29.4785 15.9708 30.1221 16.4181L32.4621 14.0781H17.3694C17.1675 14.0781 17.0039 14.2418 17.0039 14.4436V24.7745C17.0039 24.9763 17.1675 25.1399 17.3694 25.1399H38.473C38.6748 25.1399 38.8385 24.9763 38.8385 24.7745V18.6763C38.7839 18.6763 38.7348 18.6872 38.6803 18.6872C37.5294 18.6872 36.433 18.3327 35.5439 17.6236ZM20.5166 21.8236C19.3003 21.8236 18.3075 20.8308 18.3075 19.6145C18.3075 18.3981 19.3003 17.4054 20.5166 17.4054C21.733 17.4054 22.7257 18.3981 22.7257 19.6145C22.7257 20.8308 21.733 21.8236 20.5166 21.8236Z" fill="#2A3A57"/>
</g>
<defs>
<clipPath id="clip0_231_1437">
<rect width="36" height="36" fill="white" transform="translate(10 9)"/>
</clipPath>
</defs>
</svg>
