<svg width="55" height="56" viewBox="0 0 55 56" fill="none" xmlns="http://www.w3.org/2000/svg">
<rect y="0.5" width="55" height="55" rx="7" fill="white"/>
<path d="M27.4993 30.3032C29.9831 30.3032 35.8228 27.314 35.8228 20.1515C35.8229 14.545 35.0661 10 27.4993 10C19.9326 10 19.1758 14.545 19.1758 20.1516C19.1758 27.314 25.0155 30.3032 27.4993 30.3032ZM20.4198 18.4574C21.0045 17.3266 22.2692 16.0199 24.989 16.0779C24.989 16.0779 26.6102 20.0101 34.569 18.2442C34.6011 18.8724 34.6112 19.5133 34.6112 20.1516C34.6112 23.6526 33.0654 25.8218 31.7684 27.0251C30.1343 28.5413 28.32 29.0916 27.4993 29.0916C26.6785 29.0916 24.8643 28.5413 23.2302 27.0251C21.9332 25.8218 20.3874 23.6526 20.3874 20.1516C20.3875 19.5852 20.3957 19.0169 20.4198 18.4574Z" fill="#2A3A57"/>
<path d="M42.952 40.7143C42.5271 38.072 41.6522 34.6684 39.8976 33.4589C38.6994 32.6328 34.5189 30.3993 32.7337 29.4455L32.7029 29.429C32.603 29.3756 32.4897 29.3525 32.377 29.3624C32.2642 29.3723 32.1567 29.4148 32.0676 29.4847C31.1325 30.2189 30.1081 30.7137 29.0229 30.9553C28.9286 30.9763 28.8409 31.0205 28.7678 31.0837C28.6947 31.147 28.6385 31.2274 28.6042 31.3178L27.4992 34.2305L26.3942 31.3178C26.3599 31.2274 26.3036 31.147 26.2306 31.0837C26.1575 31.0205 26.0698 30.9763 25.9755 30.9553C24.8903 30.7137 23.8659 30.2189 22.9308 29.4847C22.8417 29.4147 22.7342 29.3722 22.6214 29.3623C22.5086 29.3524 22.3954 29.3756 22.2955 29.429C20.5316 30.3716 16.2999 32.6506 15.1061 33.4553C13.0862 34.816 12.2029 39.7409 12.0465 40.7143C12.031 40.8108 12.0399 40.9096 12.0725 41.0018C12.1448 41.2058 13.9986 46 27.4992 46C40.9998 46 42.8536 41.2058 42.9259 41.0018C42.9585 40.9097 42.9675 40.8108 42.952 40.7143ZM36.7309 39.1019L34.0883 39.9256L31.4458 39.1019V37.6801H36.7309V39.1019Z" fill="#2A3A57"/>
</svg>
