<svg width="55" height="56" viewBox="0 0 55 56" fill="none" xmlns="http://www.w3.org/2000/svg">
<rect y="0.5" width="55" height="55" rx="7" fill="white"/>
<g clip-path="url(#clip0_231_1407)">
<path d="M36.3692 33.8147C35.1931 32.6536 33.7248 32.6536 32.5561 33.8147C31.6647 34.6987 30.7732 35.5827 29.8967 36.4816C29.657 36.7288 29.4548 36.7813 29.1626 36.6164C28.5858 36.3018 27.9715 36.0471 27.4171 35.7025C24.8327 34.0769 22.6677 31.9869 20.7499 29.6346C19.7985 28.466 18.952 27.2149 18.3602 25.8066C18.2403 25.5219 18.2628 25.3346 18.495 25.1024C19.3865 24.2409 20.2555 23.3569 21.132 22.4729C22.353 21.2444 22.353 19.8061 21.1245 18.57C20.4278 17.8658 19.7311 17.1766 19.0344 16.4724C18.3153 15.7533 17.6036 15.0266 16.8769 14.315C15.7008 13.1688 14.2325 13.1688 13.0639 14.3225C12.1649 15.2064 11.3034 16.1129 10.3895 16.9819C9.54299 17.7834 9.11598 18.7648 9.02609 19.9109C8.88376 21.7763 9.34072 23.5367 9.98497 25.2522C11.3034 28.8031 13.3111 31.9569 15.7458 34.8485C19.0344 38.759 22.9598 41.8528 27.552 44.0852C29.6196 45.0891 31.7621 45.8607 34.0918 45.988C35.695 46.0779 37.0884 45.6734 38.2045 44.4223C38.9687 43.5683 39.8302 42.7892 40.6392 41.9727C41.8378 40.7591 41.8453 39.2908 40.6542 38.0922C39.2309 36.6614 37.8 35.2381 36.3692 33.8147ZM34.9384 27.8442L37.7026 27.3722C37.2681 24.8327 36.0695 22.5329 34.2492 20.705C32.3239 18.7798 29.8892 17.5662 27.2074 17.1916L26.8178 19.9709C28.8929 20.263 30.7807 21.1994 32.2715 22.6902C33.6798 24.0986 34.6013 25.8815 34.9384 27.8442ZM39.2608 15.8282C36.0695 12.6369 32.0318 10.6218 27.5745 10L27.1849 12.7793C31.0354 13.3186 34.5263 15.0641 37.2831 17.8134C39.8976 20.4278 41.6131 23.7315 42.2348 27.3647L44.9991 26.8928C44.2725 22.6827 42.2873 18.8622 39.2608 15.8282Z" fill="#2A3A57"/>
</g>
<defs>
<clipPath id="clip0_231_1407">
<rect width="36" height="36" fill="white" transform="translate(9 10)"/>
</clipPath>
</defs>
</svg>
