<svg width="21" height="21" viewBox="0 0 21 21" fill="none" xmlns="http://www.w3.org/2000/svg">
<path d="M10.5025 0.375H10.4975C4.9148 0.375 0.375 4.91606 0.375 10.5C0.375 12.7148 1.08881 14.7677 2.30255 16.4345L1.04072 20.196L4.93252 18.9518C6.53353 20.0124 8.44336 20.625 10.5025 20.625C16.0852 20.625 20.625 16.0827 20.625 10.5C20.625 4.91733 16.0852 0.375 10.5025 0.375ZM16.394 14.6728C16.1497 15.3625 15.1803 15.9346 14.407 16.1017C13.878 16.2143 13.1869 16.3042 10.8607 15.3398C7.88522 14.107 5.96906 11.0835 5.81972 10.8873C5.6767 10.6911 4.61737 9.28627 4.61737 7.83333C4.61737 6.38039 5.35523 5.67291 5.65266 5.36916C5.89692 5.11983 6.30066 5.00592 6.68794 5.00592C6.81323 5.00592 6.92588 5.01225 7.02712 5.01731C7.32455 5.02997 7.47389 5.04769 7.67006 5.51723C7.91433 6.10575 8.50917 7.55869 8.58005 7.70803C8.65219 7.85738 8.72433 8.05988 8.62308 8.25605C8.52816 8.45855 8.44462 8.54841 8.29528 8.72053C8.14594 8.89266 8.00419 9.02428 7.85484 9.20906C7.71816 9.3698 7.56375 9.54192 7.73588 9.83934C7.908 10.1304 8.50284 11.1012 9.37866 11.8808C10.5089 12.887 11.4252 13.2084 11.753 13.3451C11.9972 13.4464 12.2883 13.4223 12.4668 13.2325C12.6933 12.9882 12.973 12.5832 13.2578 12.1845C13.4603 11.8985 13.716 11.8631 13.9843 11.9643C14.2576 12.0592 15.7043 12.7743 16.0017 12.9224C16.2991 13.0717 16.4953 13.1426 16.5674 13.2679C16.6383 13.3932 16.6383 13.9817 16.394 14.6728Z" fill="white"/>
</svg>
