<svg width="198" height="68" viewBox="0 0 198 68" fill="none" xmlns="http://www.w3.org/2000/svg">
<path d="M73.8959 20.467V21.6585H70.9915V29.1552H69.738V20.467H73.8959ZM77.2703 20.467C78.9707 20.467 79.9388 21.4972 79.9388 23.2721C79.9388 25.0966 78.9707 26.1019 77.2703 26.1019H76.2277V29.1552H74.9742V20.467H77.2703ZM77.2579 24.9104C78.2012 24.9104 78.6604 24.3891 78.6604 23.2721C78.6604 22.2046 78.2012 21.6585 77.2579 21.6585H76.2277V24.9104H77.2579ZM84.2001 20.467H85.5158L83.4058 27.3307C82.959 28.7704 82.3508 29.2793 81.0352 29.2793H80.7249V28.1499H81.0724C81.7426 28.1499 82.0281 27.8023 82.2887 26.9335L82.388 26.6108L80.2036 20.467H81.5316L82.9466 24.6994L84.2001 20.467ZM91.3567 20.467V29.1552H90.1031V21.6585H87.6456V29.1552H86.392V20.467H91.3567ZM98.0474 20.467V29.1552H96.7938V21.6585H94.3363V29.1552H93.0827V20.467H98.0474ZM103.41 29.1552L103 27.4052H100.704L100.307 29.1552H98.9914L101.176 20.467H102.529L104.713 29.1552H103.41ZM100.977 26.2385H102.74L102.194 23.9051C102.07 23.3341 101.933 22.5025 101.871 22.0433H101.834C101.772 22.5025 101.648 23.3341 101.511 23.9051L100.977 26.2385ZM112.277 29.1552L110.155 25.3572L109.584 26.2136V29.1552H108.343V20.467H109.584V24.2402L110.155 23.2224L111.893 20.467H113.357L110.875 24.2526L113.717 29.1552H112.277ZM116.775 29.3166C115.112 29.3166 114.119 28.2119 114.119 26.3998V23.2224C114.119 21.4103 115.112 20.3057 116.775 20.3057C118.438 20.3057 119.431 21.4103 119.431 23.2224V26.3998C119.431 28.2119 118.438 29.3166 116.775 29.3166ZM116.775 28.0878C117.668 28.0878 118.14 27.492 118.14 26.3998V23.2224C118.14 22.1302 117.668 21.5344 116.775 21.5344C115.869 21.5344 115.409 22.1302 115.409 23.2224V26.3998C115.409 27.492 115.869 28.0878 116.775 28.0878ZM126.447 20.467H127.726V29.1552H126.497V25.7668C126.522 24.7739 126.547 23.8678 126.596 22.9618L126.547 22.9369C126.298 23.632 126.001 24.4263 125.703 25.2207L124.946 27.1942H123.704L122.947 25.2207C122.649 24.4263 122.352 23.632 122.103 22.9369L122.054 22.9618C122.091 23.8678 122.128 24.7739 122.153 25.7668V29.1552H120.924V20.467H122.203L123.667 23.9919C123.866 24.4884 124.164 25.32 124.3 25.7172H124.35C124.486 25.32 124.784 24.4884 124.983 23.9919L126.447 20.467ZM134.434 20.467V29.1552H133.18V21.6585H130.723V29.1552H129.469V20.467H134.434ZM139.797 29.1552L139.387 27.4052H137.091L136.694 29.1552H135.378L137.563 20.467H138.915L141.1 29.1552H139.797ZM137.364 26.2385H139.126L138.58 23.9051C138.456 23.3341 138.32 22.5025 138.258 22.0433H138.22C138.158 22.5025 138.034 23.3341 137.898 23.9051L137.364 26.2385ZM145.774 20.467H147.028V29.1552H145.774V25.3448H143.316V29.1552H142.063V20.467H143.316V24.1657H145.774V20.467ZM148.766 29.1552V20.467H149.994V24.265C149.994 24.8856 149.945 26.015 149.858 26.7722L149.895 26.797C150.057 26.375 150.28 25.7668 150.516 25.2579L152.626 20.467H153.904V29.1552H152.675V25.3696C152.675 24.7118 152.725 23.5451 152.787 22.8252L152.75 22.8004C152.589 23.2472 152.34 23.9175 152.129 24.4015L150.032 29.1552H148.766ZM158.245 19.623C157.376 19.623 156.78 19.0769 156.743 18.1336H157.599C157.624 18.568 157.86 18.7914 158.232 18.7914C158.617 18.7914 158.853 18.568 158.878 18.1336H159.734C159.697 19.0893 159.101 19.623 158.245 19.623ZM155.638 29.1552V20.467H156.867V24.265C156.867 24.8856 156.817 26.015 156.73 26.7722L156.768 26.797C156.929 26.375 157.152 25.7668 157.388 25.2579L159.498 20.467H160.777V29.1552H159.548V25.3696C159.548 24.7118 159.598 23.5451 159.66 22.8252L159.622 22.8004C159.461 23.2472 159.213 23.9175 159.002 24.4015L156.904 29.1552H155.638Z" fill="white"/>
<path d="M75.0516 42.3881C75.9348 42.8297 76.4553 43.7444 76.4553 44.8169C76.4553 46.7884 75.1463 48.0501 73.2379 48.0501H69.9101V37.0099H73.1433C74.8781 37.0099 76.061 38.2244 76.061 40.0854C76.061 41.0317 75.6825 41.8992 75.0516 42.3881ZM72.8436 38.8395H71.85V41.5522H72.9067C73.6953 41.5522 74.0896 41.0633 74.0896 40.1643C74.0896 39.2811 73.6953 38.8395 72.8436 38.8395ZM72.9382 46.2206C73.9476 46.2206 74.4681 45.7474 74.4681 44.8169C74.4681 43.8548 73.9003 43.3659 72.9225 43.3659H71.85V46.2206H72.9382ZM81.1662 48.2394C78.974 48.2394 77.6807 46.8357 77.6807 44.5015V40.5586C77.6807 38.2244 78.974 36.8207 81.1662 36.8207C83.3427 36.8207 84.636 38.2244 84.636 40.5586V44.5015C84.636 46.8357 83.3427 48.2394 81.1662 48.2394ZM81.1662 46.3625C82.1441 46.3625 82.633 45.7001 82.633 44.5015V40.5586C82.633 39.3599 82.1441 38.6975 81.1662 38.6975C80.1884 38.6975 79.6837 39.3599 79.6837 40.5586V44.5015C79.6837 45.7001 80.1884 46.3625 81.1662 46.3625ZM89.4022 48.2394C87.3519 48.2394 86.0902 47.0092 86.0902 44.7381V40.322C86.0902 38.0351 87.3362 36.7891 89.4022 36.7891C91.5156 36.7891 92.7143 38.0351 92.8089 40.2905H90.869C90.8059 39.1549 90.3328 38.666 89.3865 38.666C88.5821 38.666 88.0932 39.1864 88.0932 40.322V44.7381C88.0932 45.8421 88.5821 46.3625 89.4022 46.3625C90.3643 46.3625 90.8375 45.8736 90.9163 44.7696H92.8562C92.7774 47.0092 91.5314 48.2394 89.4022 48.2394ZM99.9069 37.0099V38.8552H97.6831V48.0501H95.6959V38.8552H93.4721V37.0099H99.9069ZM104.377 48.2394C102.185 48.2394 100.892 46.8357 100.892 44.5015V40.5586C100.892 38.2244 102.185 36.8207 104.377 36.8207C106.554 36.8207 107.847 38.2244 107.847 40.5586V44.5015C107.847 46.8357 106.554 48.2394 104.377 48.2394ZM104.377 46.3625C105.355 46.3625 105.844 45.7001 105.844 44.5015V40.5586C105.844 39.3599 105.355 38.6975 104.377 38.6975C103.399 38.6975 102.895 39.3599 102.895 40.5586V44.5015C102.895 45.7001 103.399 46.3625 104.377 46.3625ZM113.796 37.0099H115.736V48.1132H113.796V44.1545C113.323 44.2965 112.787 44.3595 112.345 44.3595C110.342 44.3595 109.112 43.0189 109.112 40.7163V37.0099H111.052V40.8109C111.052 41.9938 111.588 42.5458 112.629 42.5458C113.007 42.5458 113.417 42.4827 113.796 42.3565V37.0099ZM122.4 37.0099H124.356V48.0501H122.4V43.3975H119.735V48.0501H117.795V37.0099H119.735V41.5522H122.4V37.0099ZM126.435 48.0501V37.0099H128.423V41.2998H129.29C131.593 41.2998 132.681 42.6877 132.681 44.7065C132.681 46.9619 131.593 48.0501 129.29 48.0501H126.435ZM133.848 48.0501V37.0099H135.788V48.0501H133.848ZM128.423 46.2679H129.148C130.158 46.2679 130.662 45.779 130.662 44.7065C130.662 43.6498 130.158 43.1451 129.148 43.1451H128.423V46.2679ZM141.302 35.9217C140.183 35.9217 139.362 35.212 139.315 33.9976H140.561C140.577 34.4707 140.877 34.7388 141.287 34.7388C141.681 34.7388 141.996 34.4707 142.012 33.9976H143.242C143.195 35.2435 142.391 35.9217 141.302 35.9217ZM137.848 48.0501V37.0099H139.741V40.6217C139.741 41.5364 139.646 43.2082 139.504 44.4069L139.552 44.4384C139.788 43.8233 140.056 43.0663 140.356 42.4039L142.706 37.0099H144.646V48.0501H142.753V44.6119C142.753 43.571 142.832 41.773 142.958 40.6059L142.911 40.5586C142.627 41.3156 142.328 42.1988 141.996 42.9559L139.772 48.0501H137.848ZM154.527 48.0501L154.085 46.0471H151.499L151.057 48.0501H149.038L151.751 37.0099H153.833L156.546 48.0501H154.527ZM151.893 44.2018H153.691L153.25 42.1515C153.092 41.3945 152.918 40.1801 152.808 39.4388H152.761C152.666 40.1801 152.492 41.3945 152.335 42.1515L151.893 44.2018ZM158.612 37.0099H164.463V48.0501H162.523V38.8395H160.473C160.315 41.8992 160.157 44.0599 159.952 45.3374C159.59 47.7031 158.533 48.2236 156.845 48.2236V46.4729C157.524 46.4729 157.871 46.1417 158.091 44.8642C158.281 43.7287 158.407 41.6153 158.612 37.0099ZM166.542 48.0501V37.0099H168.482V41.2998H169.57C171.889 41.2998 172.993 42.6877 172.993 44.7065C172.993 46.9619 171.889 48.0501 169.57 48.0501H166.542ZM168.482 46.2679H169.429C170.438 46.2679 170.974 45.779 170.974 44.7065C170.974 43.634 170.438 43.1451 169.429 43.1451H168.482V46.2679ZM173.021 48.0501L175.245 43.9022C174.141 43.3817 173.51 42.2461 173.51 40.6532C173.51 38.3505 174.788 37.0099 176.917 37.0099H179.945V48.0501H178.005V44.2807H177.138L175.166 48.0501H173.021ZM176.933 42.4354H178.005V38.8552H176.933C176.002 38.8552 175.497 39.4703 175.497 40.6532C175.497 41.8045 176.002 42.4354 176.933 42.4354ZM186.627 37.0099H188.582V48.0501H186.627V43.3975H183.961V48.0501H182.021V37.0099H183.961V41.5522H186.627V37.0099ZM193.658 48.2394C191.608 48.2394 190.346 47.0092 190.346 44.7381V40.322C190.346 38.0351 191.592 36.7891 193.658 36.7891C195.772 36.7891 196.971 38.0351 197.065 40.2905H195.125C195.062 39.1549 194.589 38.666 193.643 38.666C192.838 38.666 192.349 39.1864 192.349 40.322V44.7381C192.349 45.8421 192.838 46.3625 193.658 46.3625C194.621 46.3625 195.094 45.8736 195.173 44.7696H197.112C197.034 47.0092 195.788 48.2394 193.658 48.2394Z" fill="white"/>
<path fill-rule="evenodd" clip-rule="evenodd" d="M56.5046 19.7397C56.2427 19.3057 55.9699 18.8849 55.6805 18.4682C48.9776 9.09759 35.5606 6.64446 24.9643 13.1359C24.5191 13.3952 24.0912 13.6821 23.6791 13.9686C33.4456 9.35492 45.513 13.0232 51.4964 22.8024C57.479 32.5853 55.2461 44.995 46.6824 51.5927C47.1361 51.3472 47.5891 51.1054 48.0256 50.8323C58.6331 44.3435 62.5638 31.2904 57.267 21.0401C57.0284 20.6076 56.7665 20.1736 56.5046 19.7397Z" fill="url(#paint0_linear_211_649)"/>
<path d="M60.8573 35.2158C59.5608 41.9377 55.404 48.2368 48.8845 52.2257C43.1943 55.7056 36.7471 56.785 30.8257 55.7358C24.7773 54.8107 19.0775 51.3308 15.4215 45.7219L15.3871 45.6667C15.2807 45.4967 15.166 45.3287 15.0596 45.1587C15.0375 45.1182 15.0145 45.0814 14.9924 45.0409L13.5126 42.3206L12.6359 39.6644C11.3171 35.1956 11.4209 30.5273 12.8328 26.3098C14.5916 20.5518 18.4854 15.3092 24.1757 11.8293C30.6914 7.83948 38.203 7.00523 44.783 8.918C36.5859 4.83929 26.7226 4.85264 18.5409 9.84317C5.68953 17.707 1.90073 34.891 10.0497 48.2289C18.2125 61.5581 35.2322 66.0092 48.0835 58.1454C56.2429 53.1497 60.7597 44.3652 60.8573 35.2158Z" fill="url(#paint1_linear_211_649)"/>
<path d="M41.154 23.2181L27.3531 45.8702C27.1418 46.217 27.3915 46.6614 27.7976 46.6614H32.7913C32.9785 46.6614 33.1513 46.5609 33.2438 46.3981L41.1683 32.4578C41.3676 32.1072 41.8726 32.1067 42.0726 32.4567L45.4063 38.2907C45.6046 38.6376 45.3541 39.0693 44.9545 39.0693H44.1314C43.844 39.0693 43.611 39.3023 43.611 39.5897V42.4694C43.611 42.7568 43.844 42.9898 44.1314 42.9898H52.124C52.5207 42.9898 52.7715 42.5639 52.5792 42.217L42.0536 23.2365C41.86 22.8874 41.3617 22.8772 41.154 23.2181Z" fill="white"/>
<path d="M42.7181 42.4731L42.7182 39.5945C42.7182 39.307 42.4852 39.074 42.1977 39.074H39.0375C38.8495 39.074 38.6761 39.1754 38.5839 39.3392L36.9639 42.2178C36.7686 42.5648 37.0193 42.9935 37.4174 42.9935H42.1977C42.4851 42.9935 42.7181 42.7605 42.7181 42.4731Z" fill="#D77F53"/>
<path d="M25.3352 44.7936L39.141 22.1335C39.3523 21.7867 39.1027 21.3423 38.6966 21.3423H33.7028C33.5156 21.3423 33.3429 21.4428 33.2504 21.6055L25.3237 35.5495C25.1249 35.8993 24.6214 35.9008 24.4205 35.5524L21.3113 30.1611C21.2199 30.0027 21.052 29.9038 20.8691 29.9008L16.8701 29.8341C16.4675 29.8274 16.2101 30.2608 16.4086 30.6111L24.438 44.7794C24.6338 45.1249 25.1286 45.1327 25.3352 44.7936Z" fill="#D77F53"/>
<path d="M16.1 28.944H22.5883C22.8757 28.944 23.1087 28.711 23.1087 28.4235V25.4745C23.1087 25.187 22.8757 24.954 22.5883 24.954H14.5228C14.1297 24.954 13.8785 25.3732 14.0639 25.7199L15.6411 28.669C15.7317 28.8383 15.9081 28.944 16.1 28.944Z" fill="white"/>
<defs>
<linearGradient id="paint0_linear_211_649" x1="56.5838" y1="18.0786" x2="32.2798" y2="12.4807" gradientUnits="userSpaceOnUse">
<stop stop-color="#D77F53"/>
<stop offset="1" stop-color="#BA6D47"/>
</linearGradient>
<linearGradient id="paint1_linear_211_649" x1="19.1734" y1="50.749" x2="62.2288" y2="51.4471" gradientUnits="userSpaceOnUse">
<stop stop-color="white"/>
<stop offset="1" stop-color="white" stop-opacity="0"/>
</linearGradient>
</defs>
</svg>
