<svg width="40" height="40" viewBox="0 0 40 40" fill="none" xmlns="http://www.w3.org/2000/svg">
<rect width="40" height="40" rx="5.45455" fill="white"/>
<path fill-rule="evenodd" clip-rule="evenodd" d="M29.8801 15.7733C30.0205 15.694 30.1975 15.7428 30.2768 15.8771C30.3562 16.0114 30.3073 16.1945 30.1731 16.2738L26.2361 18.5505C29.2026 19.521 32.7244 17.3786 33.1273 14.2352C30.2097 13.0083 26.5902 14.9859 25.9493 18.0439L29.8801 15.7733ZM24.698 14.9981V10.4569C24.698 10.2921 24.8262 10.164 24.991 10.164C25.1558 10.164 25.284 10.2921 25.284 10.4569V14.9981C27.6095 12.9106 27.5118 8.79061 24.991 6.87402C22.4701 8.79061 22.3725 12.9106 24.698 14.9981ZM23.9411 18.5505L20.0042 16.2799C19.8638 16.2006 19.815 16.0236 19.8943 15.8832C19.9737 15.7428 20.1507 15.694 20.2911 15.7733L24.228 18.0439C23.5871 14.9859 19.9676 13.0083 17.05 14.2352C17.4467 17.3725 20.9686 19.521 23.9411 18.5505ZM31.3267 21.3277L28.0306 23.1772C28.0001 23.4274 27.9086 23.6594 27.7682 23.8608C27.109 24.8069 24.8018 24.9167 23.9411 24.9595C22.7204 25.0205 21.4813 24.9351 20.4681 24.7519C20.3094 24.7214 20.2056 24.5688 20.2361 24.4101C20.2667 24.2514 20.4193 24.1477 20.5779 24.1782C21.5484 24.3552 22.7448 24.4346 23.9167 24.3796C24.3562 24.3613 26.4803 24.2636 27.17 23.6655C27.3409 23.4457 27.4325 23.1772 27.4264 22.8842C27.4142 22.2738 26.8831 21.6024 26.2361 21.7306C24.1364 22.1456 22.7753 22.0297 22.1527 21.3766C21.1456 20.3206 19.2473 20.3511 17.8252 20.7479L13.0093 22.0968C10.348 22.8415 8.10796 27.2484 6.875 30.581L12.405 33.1263C13.7967 30.227 15.3959 25.0938 19.6258 28.0907C21.9208 29.9401 26.4131 26.9798 28.5495 25.6858L32.639 23.2077C33.1761 22.8842 33.286 22.1334 32.9259 21.6146C32.5596 21.0958 31.876 21.0164 31.3267 21.3277Z" fill="#2A3A57"/>
</svg>
