<svg width="40" height="40" viewBox="0 0 40 40" fill="none" xmlns="http://www.w3.org/2000/svg">
<rect width="40" height="40" rx="5.45455" fill="white"/>
<g clip-path="url(#clip0_274_979)">
<path d="M17.2823 7.71061C17.3361 7.89233 17.4473 8.05178 17.5992 8.16518C17.751 8.27857 17.9355 8.33984 18.125 8.33984H19.1211V11.1523C19.1211 11.6377 19.5146 12.0312 20 12.0312C20.5493 12.0312 20.9961 12.4781 20.9961 13.0273C20.9961 13.5766 20.5493 14.0234 20 14.0234C19.4507 14.0234 19.0039 13.5766 19.0039 13.0273C19.0039 12.542 18.6104 12.1484 18.125 12.1484C17.6396 12.1484 17.2461 12.542 17.2461 13.0273C17.2461 14.5459 18.4815 15.7812 20 15.7812C21.5185 15.7812 22.7539 14.5459 22.7539 13.0273C22.7539 11.816 21.9678 10.7848 20.8789 10.4172V8.33984H21.875C22.0645 8.33984 22.249 8.27857 22.4009 8.16518C22.5527 8.05178 22.6639 7.89233 22.7177 7.71061L23.1864 6.12857C23.2253 5.99745 23.233 5.85906 23.209 5.72443C23.1849 5.5898 23.1298 5.46264 23.048 5.35306C22.9662 5.24347 22.8599 5.1545 22.7376 5.09321C22.6154 5.03192 22.4805 5 22.3438 5H17.6562C17.5195 5.00001 17.3846 5.03193 17.2624 5.09323C17.1401 5.15453 17.0338 5.24351 16.952 5.3531C16.8702 5.46268 16.8151 5.58985 16.791 5.72448C16.767 5.85912 16.7747 5.9975 16.8136 6.12863L17.2823 7.71061ZM33.125 20.9961H27.8121L22.5671 16.7346C22.0205 17.1142 21.3869 17.3767 20.7021 17.4842L25.0245 20.9961H14.9755L19.2979 17.4842C18.6131 17.3767 17.9795 17.1142 17.4329 16.7346L12.1879 20.9961H6.875C6.38961 20.9961 5.99609 21.3896 5.99609 21.875V34.1211C5.99609 34.6065 6.38961 35 6.875 35H33.125C33.6104 35 34.0039 34.6065 34.0039 34.1211V21.875C34.0039 21.3896 33.6104 20.9961 33.125 20.9961ZM11.0352 30.7812C11.0352 31.2666 10.6416 31.6602 10.1562 31.6602C9.67086 31.6602 9.27734 31.2666 9.27734 30.7812V25.1562C9.27734 24.6709 9.67086 24.2773 10.1562 24.2773C10.6416 24.2773 11.0352 24.6709 11.0352 25.1562V30.7812ZM14.3164 30.7812C14.3164 31.2666 13.9229 31.6602 13.4375 31.6602C12.9521 31.6602 12.5586 31.2666 12.5586 30.7812V25.1562C12.5586 24.6709 12.9521 24.2773 13.4375 24.2773C13.9229 24.2773 14.3164 24.6709 14.3164 25.1562V30.7812ZM17.5977 30.7812C17.5977 31.2666 17.2041 31.6602 16.7188 31.6602C16.2334 31.6602 15.8398 31.2666 15.8398 30.7812V25.1562C15.8398 24.6709 16.2334 24.2773 16.7188 24.2773C17.2041 24.2773 17.5977 24.6709 17.5977 25.1562V30.7812ZM20.8789 30.7812C20.8789 31.2666 20.4854 31.6602 20 31.6602C19.5146 31.6602 19.1211 31.2666 19.1211 30.7812V25.1562C19.1211 24.6709 19.5146 24.2773 20 24.2773C20.4854 24.2773 20.8789 24.6709 20.8789 25.1562V30.7812ZM24.1602 30.7812C24.1602 31.2666 23.7666 31.6602 23.2812 31.6602C22.7959 31.6602 22.4023 31.2666 22.4023 30.7812V25.1562C22.4023 24.6709 22.7959 24.2773 23.2812 24.2773C23.7666 24.2773 24.1602 24.6709 24.1602 25.1562V30.7812ZM27.4414 30.7812C27.4414 31.2666 27.0479 31.6602 26.5625 31.6602C26.0771 31.6602 25.6836 31.2666 25.6836 30.7812V25.1562C25.6836 24.6709 26.0771 24.2773 26.5625 24.2773C27.0479 24.2773 27.4414 24.6709 27.4414 25.1562V30.7812ZM30.7227 30.7812C30.7227 31.2666 30.3291 31.6602 29.8438 31.6602C29.3584 31.6602 28.9648 31.2666 28.9648 30.7812V25.1562C28.9648 24.6709 29.3584 24.2773 29.8438 24.2773C30.3291 24.2773 30.7227 24.6709 30.7227 25.1562V30.7812Z" fill="#2A3A57"/>
</g>
<defs>
<clipPath id="clip0_274_979">
<rect width="30" height="30" fill="white" transform="translate(5 5)"/>
</clipPath>
</defs>
</svg>
