<svg width="40" height="40" viewBox="0 0 40 40" fill="none" xmlns="http://www.w3.org/2000/svg">
<rect width="40" height="40" rx="5.45455" fill="white"/>
<g clip-path="url(#clip0_274_972)">
<path d="M5.15589 14.8869L7.03383 16.3542L5.26633 19.7402C4.38261 21.3015 5.90079 22.8224 6.8681 23.3519C7.82035 23.873 9.29834 23.935 10.6792 23.9162L13.1647 19.853L15.0426 20.8688L11.7838 14.8305L5.15589 14.8869ZM5.43202 23.1754L9.46403 30.6246C10.2741 31.6591 11.8023 31.9037 13.3856 31.8661H17.6385V24.812L9.57452 24.7556C8.32261 24.8307 6.68398 24.5674 5.43202 23.1754ZM30.7995 9.4476L28.6057 10.3787L26.5012 7.19138C25.5641 5.66153 23.4978 6.25197 22.5658 6.84133C21.6483 7.42153 20.8776 8.68417 20.2246 9.90099L22.5733 14.0447L20.7744 15.1947L27.6355 15.272L30.7995 9.4476ZM23.4163 5.67084L14.9464 5.58594C13.6488 5.79285 12.694 7.01079 11.9593 8.41393L9.89746 12.1336L16.0671 15.5535L20.026 8.5279C20.5671 7.39638 21.5919 6.09094 23.4163 5.67084ZM23.7847 34.414L24.0338 32.0438L27.8419 31.7485C29.6342 31.6705 30.1196 29.5771 30.056 28.4762C29.9934 27.3925 29.2627 26.1062 28.515 24.9452L23.7521 24.9905L23.6183 22.8596L20.2245 28.823L23.7847 34.414ZM30.6674 29.7876L34.848 22.4208C35.2961 21.1856 34.6937 19.7601 33.8227 18.4372L31.569 14.8305L25.5868 18.5686L29.8122 25.4372C30.5395 26.459 31.1845 27.9881 30.6674 29.7876Z" fill="#2A3A57"/>
</g>
<defs>
<clipPath id="clip0_274_972">
<rect width="30" height="30" fill="white" transform="translate(5 5)"/>
</clipPath>
</defs>
</svg>
