<svg width="110" height="110" viewBox="0 0 110 110" fill="none" xmlns="http://www.w3.org/2000/svg">
<g clip-path="url(#clip0_247_3022)">
<path d="M75.0788 100.396V107.381C75.0743 108.074 74.7969 108.738 74.3066 109.228C73.8163 109.718 73.1527 109.995 72.4594 110H37.5413C36.848 109.995 36.1843 109.718 35.6941 109.228C35.2038 108.738 34.9264 108.074 34.9219 107.381V100.396C34.9161 96.7458 35.9129 93.1646 37.8036 90.0427C39.6943 86.9208 42.4063 84.3782 45.6435 82.6925C42.7153 80.6918 40.5046 77.806 39.3354 74.4579C38.1661 71.1098 38.0996 67.4752 39.1456 64.0866C40.1916 60.6979 42.2952 57.7333 45.1483 55.6268C48.0013 53.5203 51.4539 52.3827 55.0003 52.3806C58.5468 52.3827 61.9993 53.5203 64.8524 55.6268C67.7054 57.7333 69.809 60.6979 70.8551 64.0866C71.9011 67.4752 71.8346 71.1098 70.6653 74.4579C69.496 77.806 67.2854 80.6918 64.3572 82.6925C67.5938 84.3787 70.305 86.9214 72.1951 90.0433C74.0852 93.1652 75.0849 96.7462 75.0788 100.396Z" fill="#D77F53"/>
<path d="M96.0288 93.4141V100.396C96.0243 101.089 95.7468 101.753 95.2566 102.243C94.7663 102.733 94.1027 103.011 93.4094 103.015H80.3125V100.396C80.3213 96.9661 79.6291 93.5708 78.2784 90.4184C76.9277 87.266 74.947 84.4228 72.4578 82.0635C75.2894 78.284 76.821 73.6892 76.8234 68.9666C76.8202 64.9565 75.7141 61.0244 73.626 57.6008C71.538 54.1771 68.5485 51.3937 64.9847 49.5551C68.0109 46.8786 71.9104 45.3995 75.9503 45.3957C80.3484 45.4002 84.5649 47.1496 87.6745 50.2598C90.7841 53.3701 92.5326 57.587 92.5362 61.9851C92.5321 64.6778 91.8758 67.3294 90.6234 69.7132C89.3711 72.097 87.56 74.1419 85.345 75.6732C87.0878 76.5807 88.6966 77.7701 90.1609 79.2001C93.9164 82.9778 96.0257 88.0873 96.0288 93.4141ZM13.9688 93.4141V100.396C13.9688 101.829 15.1547 103.015 16.5881 103.015H29.685V100.396C29.685 93.3419 32.5794 86.7419 37.5397 82.0635C34.7081 78.284 33.1765 73.6892 33.1741 68.9666C33.1773 64.9565 34.2834 61.0244 36.3715 57.6008C38.4595 54.1771 41.449 51.3937 45.0128 49.5551C41.9866 46.8786 38.0871 45.3995 34.0472 45.3957C29.6491 45.4002 25.4326 47.1496 22.323 50.2598C19.2134 53.3701 17.4649 57.587 17.4612 61.9851C17.4654 64.6778 18.1217 67.3294 19.3741 69.7132C20.6264 72.097 22.4375 74.1419 24.6525 75.6732C22.9062 76.5807 21.3009 77.7701 19.8331 79.2001C16.0789 82.9784 13.9709 88.0878 13.9688 93.4141ZM54.1875 33.8938L45.1812 38.6273C44.893 38.7786 44.5682 38.8464 44.2434 38.823C43.9187 38.7995 43.6069 38.6857 43.3435 38.4944C43.08 38.3032 42.8752 38.042 42.7523 37.7405C42.6294 37.439 42.5932 37.1092 42.6478 36.7882L44.3666 26.761C44.4147 26.4818 44.3941 26.1951 44.3067 25.9256C44.2192 25.6561 44.0676 25.4119 43.8647 25.2141L36.5772 18.1123C36.3443 17.8846 36.1797 17.5965 36.102 17.2802C36.0243 16.964 36.0365 16.6324 36.1374 16.3228C36.2382 16.0131 36.4236 15.7379 36.6726 15.5281C36.9216 15.3182 37.2243 15.1822 37.5466 15.1354L47.6184 13.671C47.8974 13.6298 48.1622 13.5217 48.3903 13.3559C48.6184 13.1901 48.8029 12.9715 48.9281 12.7188L53.4312 3.59569C53.5755 3.30358 53.7986 3.05764 54.0753 2.88567C54.352 2.7137 54.6712 2.62257 54.997 2.62257C55.3228 2.62257 55.6421 2.7137 55.9188 2.88567C56.1955 3.05764 56.4186 3.30358 56.5628 3.59569L61.0659 12.7188C61.3203 13.2344 61.8119 13.5885 62.3791 13.671L72.4509 15.1354C73.8809 15.3416 74.4516 17.1051 73.4134 18.1123L66.1362 25.2141C65.9328 25.4116 65.7804 25.6556 65.6924 25.9251C65.6044 26.1946 65.5833 26.4815 65.6309 26.761L67.3497 36.7882C67.4039 37.1087 67.3675 37.438 67.2447 37.739C67.1219 38.0399 66.9176 38.3007 66.6546 38.4918C66.3917 38.6829 66.0806 38.7969 65.7564 38.8208C65.4323 38.8447 65.1078 38.7777 64.8197 38.6273L55.8134 33.8938C55.5627 33.7619 55.2837 33.693 55.0005 33.693C54.7172 33.693 54.4382 33.7619 54.1875 33.8938ZM93.4094 20.5494H86.4278C85.7331 20.5494 85.0669 20.2735 84.5756 19.7822C84.0844 19.291 83.8084 18.6248 83.8084 17.9301C83.8084 17.2354 84.0844 16.5691 84.5756 16.0779C85.0669 15.5867 85.7331 15.3107 86.4278 15.3107H93.4094C94.1041 15.3107 94.7703 15.5867 95.2616 16.0779C95.7528 16.5691 96.0288 17.2354 96.0288 17.9301C96.0288 18.6248 95.7528 19.291 95.2616 19.7822C94.7703 20.2735 94.1041 20.5494 93.4094 20.5494ZM83.6022 8.30163C83.0077 8.30602 82.4294 8.10775 81.9626 7.7395C81.4959 7.37126 81.1685 6.855 81.0344 6.27578C80.9003 5.69657 80.9675 5.08895 81.2249 4.55304C81.4824 4.01713 81.9147 3.5849 82.4506 3.32757L88.7275 0.268193C89.0367 0.117194 89.3727 0.0285784 89.7161 0.00740709C90.0596 -0.0137643 90.4039 0.0329229 90.7293 0.144803C91.0547 0.256683 91.3549 0.431565 91.6128 0.659464C91.8706 0.887363 92.081 1.16382 92.232 1.47304C92.383 1.78226 92.4716 2.11819 92.4928 2.46166C92.514 2.80513 92.4673 3.14941 92.3554 3.47483C92.2435 3.80026 92.0687 4.10046 91.8408 4.3583C91.6129 4.61614 91.3364 4.82657 91.0272 4.97757L84.7503 8.03694C84.3926 8.21099 84 8.3015 83.6022 8.30163ZM89.8756 35.8463C89.4781 35.8473 89.0855 35.7579 88.7275 35.5851L82.4506 32.5257C81.8261 32.2212 81.3482 31.6811 81.1219 31.0242C80.8956 30.3673 80.9396 29.6474 81.2441 29.0229C81.5486 28.3984 82.0887 27.9204 82.7456 27.6941C83.4025 27.4679 84.1224 27.5118 84.7469 27.8163L91.0272 30.8757C91.56 31.1353 91.989 31.568 92.2441 32.103C92.4992 32.638 92.5653 33.2437 92.4317 33.8212C92.298 34.3986 91.9724 34.9137 91.5081 35.2821C91.0439 35.6506 90.4683 35.8473 89.8756 35.8463ZM23.5697 20.5494H16.5881C15.8934 20.5494 15.2272 20.2735 14.7359 19.7822C14.2447 19.291 13.9688 18.6248 13.9688 17.9301C13.9688 17.2354 14.2447 16.5691 14.7359 16.0779C15.2272 15.5867 15.8934 15.3107 16.5881 15.3107H23.5697C24.2644 15.3107 24.9306 15.5867 25.4219 16.0779C25.9131 16.5691 26.1891 17.2354 26.1891 17.9301C26.1891 18.6248 25.9131 19.291 25.4219 19.7822C24.9306 20.2735 24.2644 20.5494 23.5697 20.5494ZM26.3953 8.30163C25.9975 8.3015 25.6049 8.21099 25.2472 8.03694L18.9703 4.97757C18.3458 4.67261 17.868 4.13206 17.6421 3.47483C17.4161 2.81761 17.4605 2.09754 17.7655 1.47304C18.0704 0.848535 18.611 0.370755 19.2682 0.144803C19.9254 -0.0811489 20.6455 -0.0367641 21.27 0.268193L27.5469 3.32757C28.0797 3.58721 28.5087 4.01988 28.7638 4.55489C29.0189 5.0899 29.085 5.69561 28.9513 6.27305C28.8177 6.8505 28.4921 7.36553 28.0278 7.73399C27.5635 8.10246 26.988 8.30257 26.3953 8.30163ZM20.1219 35.8463C19.5287 35.8491 18.9521 35.6501 18.4869 35.282C18.0216 34.914 17.6953 34.3987 17.5614 33.8208C17.4275 33.2429 17.494 32.6366 17.75 32.1015C18.006 31.5663 18.4363 31.1341 18.9703 30.8757L25.2472 27.8163C25.5564 27.6653 25.8923 27.5767 26.2358 27.5555C26.5793 27.5344 26.9236 27.581 27.249 27.6929C27.5744 27.8048 27.8746 27.9797 28.1325 28.2076C28.3903 28.4355 28.6007 28.7119 28.7517 29.0212C28.9027 29.3304 28.9913 29.6663 29.0125 30.0098C29.0337 30.3533 28.987 30.6975 28.8751 31.023C28.7632 31.3484 28.5883 31.6486 28.3604 31.9064C28.1326 32.1643 27.8561 32.3747 27.5469 32.5257L21.27 35.5851C20.9118 35.7575 20.5194 35.8468 20.1219 35.8463Z" fill="#D77F53"/>
</g>
<defs>
<clipPath id="clip0_247_3022">
<rect width="110" height="110" fill="white"/>
</clipPath>
</defs>
</svg>
