<svg width="110" height="110" viewBox="0 0 110 110" fill="none" xmlns="http://www.w3.org/2000/svg">
<path d="M103.34 71.3281C103.34 67.7832 100.439 64.8828 96.8945 64.8828C100.439 64.8828 103.34 61.9824 103.34 58.4375C103.34 54.8926 100.439 51.9922 96.8945 51.9922H70.469C74.4004 40.1971 74.3359 36.4375 74.3359 29.2188C74.3359 23.856 69.9389 19.5508 64.668 19.5508H62.7344C61.5098 19.5508 59.9629 20.5178 59.6404 22C56.4519 34.4139 51.4669 48.6587 38.8867 51.544V98.1784L50.0369 101.879C53.324 102.974 56.7402 103.554 60.2207 103.554H90.4492C94.009 103.555 96.8945 100.669 96.8945 97.1094C96.8945 93.5496 94.009 90.6641 90.4492 90.6641H96.8945C100.439 90.6641 103.34 87.7637 103.34 84.2188C103.34 80.6738 100.439 77.7734 96.8945 77.7734C100.439 77.7734 103.34 74.873 103.34 71.3281ZM22.7734 45.5469H9.88281C8.10154 45.5469 6.66016 46.9883 6.66016 48.7695V106.777C6.66016 108.559 8.10154 110 9.88281 110H22.7734C28.1046 110 32.4414 105.663 32.4414 100.332V55.2148C32.4414 49.8837 28.1046 45.5469 22.7734 45.5469ZM22.7734 97.1094C20.9937 97.1094 19.5508 95.6665 19.5508 93.8867C19.5508 92.1065 20.9937 90.6641 22.7734 90.6641C24.5532 90.6641 25.9961 92.1065 25.9961 93.8867C25.9961 95.6665 24.5532 97.1094 22.7734 97.1094ZM50.9938 14.2102L46.4368 9.65314C45.178 8.39437 43.1385 8.39437 41.8797 9.65314C40.6209 10.9119 40.6209 12.9514 41.8797 14.2102L46.4368 18.7672C47.6955 20.026 49.7348 20.026 50.9938 18.7672C52.2526 17.5085 52.2526 15.469 50.9938 14.2102ZM87.4562 9.65314C86.1975 8.39437 84.158 8.39437 82.8992 9.65314L78.3421 14.2102C77.0834 15.469 77.0834 17.5085 78.3421 18.7672C79.6009 20.026 81.6404 20.026 82.8992 18.7672L87.4562 14.2102C88.715 12.9514 88.715 10.9119 87.4562 9.65314ZM64.668 0C62.8631 0 61.4453 1.41775 61.4453 3.22266V9.88281C61.4453 11.6877 62.8631 13.1055 64.668 13.1055C66.4729 13.1055 67.8906 11.6877 67.8906 9.88281V3.22266C67.8906 1.41775 66.4729 0 64.668 0Z" fill="#2A3A57"/>
</svg>
