<svg width="110" height="110" viewBox="0 0 110 110" fill="none" xmlns="http://www.w3.org/2000/svg">
<path d="M51.1841 61.5509C51.6508 61.3343 52.1674 61.3509 52.6341 61.5843L56.1341 63.3343V56.8843H47.1175V63.4343L51.1841 61.5509ZM85.4674 86.9009C84.3841 86.3343 83.1674 86.2343 82.0675 86.6343L58.9341 94.9343C57.8008 95.5676 56.4841 95.9176 55.1008 95.9176H41.1508C40.2341 95.9176 39.4841 95.1676 39.4841 94.2509C39.4841 93.3343 40.2341 92.5843 41.1508 92.5843H55.1008C55.8841 92.5843 56.6508 92.3843 57.3008 92.0509L57.5508 91.9009C58.5341 91.2843 59.2508 90.3176 59.4341 89.2009C59.5336 88.6146 59.5039 88.0136 59.347 87.44C59.19 86.8664 58.9097 86.334 58.5255 85.88C58.1414 85.426 57.6627 85.0614 57.123 84.8117C56.5832 84.562 55.9955 84.4332 55.4008 84.4343H44.9841C41.9341 84.4343 38.8841 83.3343 36.4008 81.3509C32.3341 78.1009 23.9174 73.7676 12.8008 80.5509V100.784C15.6508 100.801 21.6174 101.318 29.9174 104.568C37.7008 107.618 45.9841 108.318 53.8841 106.601C61.9841 104.834 74.1008 101.251 85.7008 94.1343C86.6174 93.5676 87.3008 92.6176 87.5508 91.5176C87.9841 89.6843 87.1174 87.7843 85.4674 86.9009Z" fill="#2A3A57"/>
<path d="M44.9833 81.0666H55.4C57.5833 81.0666 59.6333 82.0166 61.05 83.6833C61.7848 84.5521 62.311 85.5775 62.5883 86.6811C62.8657 87.7846 62.8867 88.937 62.65 90.05L74.05 85.9666V59.6333C74.05 58.1166 72.8167 56.9 71.3167 56.9H59.45V66.05C59.4502 66.2689 59.4073 66.4857 59.3236 66.688C59.2399 66.8903 59.1171 67.0742 58.9623 67.229C58.8075 67.3838 58.6237 67.5065 58.4214 67.5902C58.2191 67.6739 58.0023 67.7169 57.7833 67.7166C57.5333 67.7166 57.2667 67.65 57.0333 67.5333L51.8333 64.9333L46.1167 67.5666C45.6 67.8 45 67.7666 44.5167 67.45C44.2803 67.3011 44.0859 67.0944 43.9517 66.8494C43.8176 66.6044 43.7481 66.3293 43.75 66.05V56.9H31.8833C30.3667 56.9 29.15 58.1333 29.15 59.6333V74.1166C33.15 75.05 36.3333 77.0166 38.4667 78.7333C40.4 80.2666 42.65 81.0666 44.9833 81.0666ZM9.46667 75.0333L2.33333 74.9333L2.25 105.133L9.36667 105.233L9.46667 105.133V75.0333ZM59.0833 25.0833C57.7725 24.3023 56.2759 23.8879 54.75 23.8833C50.0333 23.8833 46.2 27.7166 46.2 32.4333C46.2 37.15 50.0333 40.9833 54.75 40.9833C57.1833 40.9833 59.45 39.9333 61.05 38.1833C59.65 37.7833 58.3833 36.9833 57.45 35.85C55.1333 33.05 55.4167 28.7666 58.0833 26.0833L59.0833 25.0833Z" fill="#2A3A57"/>
<path d="M74.2 13.2167C74.45 13.8333 74.3167 14.55 73.8333 15.0333L60.4333 28.4333C58.9667 29.9 58.7833 32.2167 60.0167 33.7167C60.7167 34.5667 61.7 35.0667 62.7833 35.1167C63.8667 35.1833 64.9 34.7667 65.6667 34L76.7833 22.8833C76.9375 22.7288 77.1207 22.6062 77.3223 22.5226C77.5239 22.439 77.7401 22.3959 77.9583 22.3959C78.1766 22.3959 78.3927 22.439 78.5944 22.5226C78.796 22.6062 78.9791 22.7288 79.1333 22.8833C81.4 25.1167 84.4 26.25 87.5833 26.2833C90.5333 26.2333 93.3 25.1 95.4333 23.0833V2.5H66.55C63.75 2.5 61.1 3.6 59.1167 5.58333L52.5 12.2H72.6667C73.3333 12.1833 73.95 12.6 74.2 13.2167Z" fill="#2A3A57"/>
<path d="M32.1354 35.8507C34.0224 35.8507 35.5521 34.321 35.5521 32.434C35.5521 30.547 34.0224 29.0173 32.1354 29.0173C30.2484 29.0173 28.7188 30.547 28.7188 32.434C28.7188 34.321 30.2484 35.8507 32.1354 35.8507Z" fill="#2A3A57"/>
<path d="M98.7818 2.50049H107.765V22.1005H98.7818V2.50049ZM78.0484 26.3505L68.0318 36.3672C67.2318 37.1672 66.2318 37.7338 65.1651 38.0838C63.0984 41.8838 59.1151 44.3172 54.7484 44.3172C48.1984 44.3172 42.8651 38.9838 42.8651 32.4338C42.8651 25.8838 48.1984 20.5505 54.7484 20.5505C57.1651 20.5505 59.5151 21.3005 61.4818 22.6672L68.6318 15.5172H22.5151C21.8984 15.5172 21.3984 16.0172 21.3984 16.6338V48.2005C21.3984 48.8172 21.8984 49.3172 22.5151 49.3172H86.9984C87.6151 49.3172 88.1151 48.8172 88.1151 48.2005V29.5672C87.9484 29.5672 87.7984 29.6005 87.6318 29.6005C84.1151 29.6005 80.7651 28.5172 78.0484 26.3505ZM32.1318 39.1838C28.4151 39.1838 25.3818 36.1505 25.3818 32.4338C25.3818 28.7172 28.4151 25.6838 32.1318 25.6838C35.8484 25.6838 38.8818 28.7172 38.8818 32.4338C38.8818 36.1505 35.8484 39.1838 32.1318 39.1838Z" fill="#2A3A57"/>
</svg>
