<svg width="40" height="40" viewBox="0 0 40 40" fill="none" xmlns="http://www.w3.org/2000/svg">
<rect width="40" height="40" rx="5.45455" fill="white"/>
<path fill-rule="evenodd" clip-rule="evenodd" d="M15.3946 27.3687H24.6318L24.4615 28.8769H15.5649L15.3946 27.3687ZM29.5576 26.7958C29.9585 26.8264 30.2924 27.0222 30.4272 27.467C30.6582 28.2278 30.0719 29.1104 29.2831 29.1104H28.1235C27.2954 29.1104 27.0841 28.5475 27.2167 28.1496C27.4435 27.4691 28.6705 26.7305 29.5576 26.7958ZM10.4717 26.7958C11.3588 26.7305 12.5858 27.4691 12.8122 28.1491C12.9432 28.5475 12.7318 29.11 11.9041 29.11H10.7441C9.95488 29.11 9.36944 28.2274 9.60044 27.4666C9.73686 27.0222 10.0687 26.8264 10.4717 26.7958ZM15.0811 24.5984H24.9457L24.7754 26.1066H15.251L15.0811 24.5984ZM15.4778 21.9286H24.5494C24.8436 21.9286 25.3273 22.1358 25.144 22.8442L25.0892 23.3368H14.9397L14.8828 22.8442C14.6995 22.1358 15.1853 21.9286 15.4778 21.9286ZM28.9082 13.8953L30.0393 14.5142V20.9456L29.5141 21.2335L28.9082 13.8953ZM11.1345 13.8953L10.5286 21.2335L10.003 20.9456V14.5142L11.1345 13.8953ZM14.0718 12.7746H25.9546C26.5041 12.7746 27.1334 13.1387 27.2121 14.0807L27.6285 18.9926H12.4004L12.8143 14.0807C12.895 13.1387 13.5227 12.7746 14.0718 12.7746ZM13.5755 5.46062C12.4439 5.64391 11.6639 6.63526 11.5505 7.83208L11.2149 12.7361L9.41506 13.7187L7.98933 14.4778C7.75206 14.6037 7.52734 14.7498 7.52734 15.0896V20.3707C7.52734 20.7109 7.75206 20.8569 7.98933 20.9833L9.41506 21.7416L10.4411 22.304C9.02672 23.7163 8.12241 24.6294 8.1199 26.6632V30.0959C8.1199 31.0311 8.34043 31.8614 9.14012 32.6615V33.7663C9.14012 34.2023 9.4908 34.5555 9.92977 34.5555H12.1631C12.2668 34.5558 12.3696 34.5355 12.4654 34.496C12.5613 34.4564 12.6484 34.3983 12.7217 34.3249C12.795 34.2516 12.8531 34.1644 12.8926 34.0686C12.9321 33.9727 12.9523 33.87 12.952 33.7663V32.6615H27.0753V33.7663C27.0753 34.2023 27.4284 34.5555 27.8645 34.5555H30.1008C30.2043 34.5555 30.3068 34.5351 30.4024 34.4954C30.498 34.4557 30.5849 34.3975 30.658 34.3242C30.7311 34.2509 30.789 34.1638 30.8283 34.0681C30.8677 33.9723 30.8878 33.8698 30.8875 33.7663V32.6615C31.6897 31.8614 31.9077 31.0311 31.9077 30.0959V26.6632C31.9077 24.6294 31.0009 23.7163 29.5865 22.304L30.613 21.7416L32.0404 20.9833C32.2781 20.8565 32.5007 20.7109 32.5007 20.3707V15.0892C32.5007 14.7494 32.2781 14.6033 32.0404 14.4774L30.613 13.7183L28.8148 12.7357L28.4796 7.83167C28.3658 6.63485 27.5837 5.64349 26.4551 5.46021L26.0952 7.16881C25.9274 7.95804 25.7311 8.58114 25.2997 9.03685C24.8683 9.49215 24.2343 9.68841 23.4384 9.68841H16.5918C15.7963 9.68841 15.1602 9.49215 14.7283 9.03685C14.2994 8.58114 14.1006 7.95763 13.9349 7.16881L13.5755 5.46062Z" fill="#2A3A57"/>
<path fill-rule="evenodd" clip-rule="evenodd" d="M25.5431 5.4668L25.2163 7.02266C25.0619 7.75791 24.8802 8.2153 24.6472 8.46136C24.4141 8.70825 24.1027 8.83254 23.4353 8.83254H16.5921C15.9271 8.83254 15.6137 8.70825 15.3802 8.46136C15.1467 8.2153 14.9638 7.75791 14.8094 7.02266L14.4805 5.4668H25.5431Z" fill="#2A3A57"/>
</svg>
