<svg width="40" height="40" viewBox="0 0 40 40" fill="none" xmlns="http://www.w3.org/2000/svg">
<rect width="40" height="40" rx="5.45455" fill="white"/>
<g clip-path="url(#clip0_248_3780)">
<path d="M10.8931 29.375V26.6504L5.75781 31.7857H8.48242C9.81326 31.7843 10.8917 30.7058 10.8931 29.375Z" fill="#2A3A57"/>
<path d="M14.1072 29.375V24.5536C14.1094 22.6313 15.6671 21.0736 17.5893 21.0714H21.0715V18.9286H5V21.0714H8.48217C10.4044 21.0736 11.9621 22.6313 11.9643 24.5536V29.375C11.9621 31.2972 10.4044 32.8549 8.48217 32.8572H5V35H21.0714V32.8572H17.5893C15.6671 32.8549 14.1094 31.2972 14.1072 29.375ZM34.2425 5H18.6147L5.7575 17.8572H21.3853L34.2425 5ZM22.1428 18.6147V20.3139L27.9248 14.532L35 7.45678V5.7575L22.1428 18.6147ZM22.1428 32.5357V34.1964L31.933 23.9166L35 20.8497V19.1503L32.7002 21.4502L22.1428 32.5357Z" fill="#2A3A57"/>
<path d="M34.2436 18.3926H31.519C31.4734 18.3896 31.4283 18.3805 31.3851 18.3656C31.3418 18.3805 31.2968 18.3896 31.2511 18.3926C29.7568 18.3902 28.4303 17.4356 27.9532 16.0195L21.9872 21.9855C21.8865 22.0858 21.7503 22.1422 21.6082 22.1426H17.5904C16.2596 22.1441 15.1812 23.2226 15.1797 24.5534V29.3748C15.1812 30.7056 16.2596 31.7841 17.5904 31.7855H21.3786L31.9344 20.7019L34.2436 18.3926ZM17.703 29.9961C17.628 30.0716 17.5323 30.1231 17.428 30.144C17.3237 30.1649 17.2155 30.1542 17.1172 30.1135C17.019 30.0727 16.9351 30.0035 16.8763 29.9149C16.8174 29.8263 16.7863 29.7221 16.7869 29.6157C16.7869 29.4737 16.8433 29.3374 16.9438 29.2369C17.0442 29.1365 17.1805 29.08 17.3226 29.08C17.4647 29.08 17.6009 29.1365 17.7014 29.2369C17.8019 29.3374 17.8583 29.4737 17.8583 29.6157C17.859 29.6863 17.8456 29.7563 17.819 29.8216C17.7923 29.8869 17.7529 29.9462 17.703 29.9961ZM19.8532 27.742L19.3175 28.3034C19.2191 28.4049 19.0845 28.4634 18.9432 28.4661C18.8018 28.4689 18.6651 28.4157 18.5628 28.3181C18.4605 28.2205 18.401 28.0864 18.3971 27.9451C18.3932 27.8038 18.4453 27.6667 18.5421 27.5636L19.0778 27.0023C19.1759 26.8995 19.3108 26.8398 19.4529 26.8365C19.595 26.8331 19.7326 26.8864 19.8354 26.9845C19.9382 27.0826 19.9978 27.2175 20.0012 27.3596C20.0045 27.5016 19.9513 27.6392 19.8532 27.742ZM21.996 25.4971L21.4603 26.0585C21.3619 26.16 21.2274 26.2185 21.086 26.2212C20.9447 26.224 20.808 26.1708 20.7057 26.0732C20.6034 25.9756 20.5438 25.8415 20.5399 25.7002C20.536 25.5589 20.5882 25.4218 20.6849 25.3187L21.2206 24.7574C21.319 24.6559 21.4536 24.5974 21.5949 24.5946C21.7363 24.5918 21.873 24.6451 21.9753 24.7426C22.0776 24.8402 22.1371 24.9743 22.141 25.1156C22.1449 25.2569 22.0928 25.3941 21.996 25.4971ZM24.1388 23.2523L23.6031 23.8136C23.5047 23.9151 23.3702 23.9736 23.2288 23.9764C23.0875 23.9792 22.9508 23.9259 22.8485 23.8284C22.7462 23.7308 22.6866 23.5967 22.6827 23.4554C22.6789 23.3141 22.731 23.1769 22.8278 23.0739L23.3635 22.5125C23.4619 22.411 23.5964 22.3525 23.7378 22.3498C23.8791 22.347 24.0158 22.4002 24.1181 22.4978C24.2204 22.5954 24.28 22.7294 24.2839 22.8708C24.2877 23.0121 24.2356 23.1492 24.1388 23.2523ZM26.2817 21.0074L25.746 21.5687C25.6479 21.6715 25.513 21.7312 25.3709 21.7345C25.2288 21.7378 25.0913 21.6846 24.9885 21.5865C24.8856 21.4884 24.826 21.3534 24.8227 21.2114C24.8194 21.0693 24.8726 20.9317 24.9707 20.8289L25.5064 20.2676C25.5548 20.216 25.613 20.1745 25.6775 20.1455C25.742 20.1165 25.8117 20.1006 25.8824 20.0987C25.9531 20.0967 26.0235 20.1088 26.0895 20.1342C26.1555 20.1596 26.2158 20.1978 26.267 20.2466C26.3182 20.2955 26.3592 20.354 26.3877 20.4187C26.4161 20.4835 26.4315 20.5532 26.4328 20.6239C26.4342 20.6947 26.4216 20.765 26.3956 20.8308C26.3697 20.8966 26.331 20.9566 26.2817 21.0074ZM27.8815 19.3301C27.8321 19.381 27.773 19.4214 27.7076 19.449C27.6423 19.4766 27.5721 19.4908 27.5012 19.4908C27.4303 19.4908 27.3601 19.4766 27.2948 19.449C27.2294 19.4214 27.1703 19.381 27.1209 19.3301C27.0706 19.2816 27.0309 19.2233 27.0041 19.1587C26.9774 19.0942 26.9643 19.0249 26.9655 18.955C26.9649 18.8486 26.9959 18.7444 27.0548 18.6557C27.1136 18.567 27.1975 18.4978 27.2958 18.457C27.3941 18.4162 27.5023 18.4056 27.6066 18.4266C27.711 18.4475 27.8067 18.4991 27.8816 18.5747C27.9803 18.6769 28.0359 18.813 28.037 18.955C28.0381 19.0249 28.025 19.0942 27.9982 19.1587C27.9715 19.2233 27.9318 19.2816 27.8815 19.3301Z" fill="#2A3A57"/>
</g>
<defs>
<clipPath id="clip0_248_3780">
<rect width="30" height="30" fill="white" transform="translate(5 5)"/>
</clipPath>
</defs>
</svg>
