<svg width="44" height="44" viewBox="0 0 44 44" fill="none" xmlns="http://www.w3.org/2000/svg">
<rect width="44" height="44" rx="6" fill="#2A3A57"/>
<path fill-rule="evenodd" clip-rule="evenodd" d="M22.0273 9.16406C19.2376 9.16756 16.5632 10.277 14.5902 12.2492C12.6172 14.2213 11.5066 16.8953 11.502 19.685C11.502 23.7108 14.0462 27.3795 16.4714 30.1045C18.8966 32.8296 21.3218 34.6463 21.3218 34.6463C21.5241 34.798 21.7701 34.88 22.0229 34.88C22.2757 34.88 22.5217 34.798 22.724 34.6463C22.724 34.6463 25.1492 32.8296 27.5744 30.1045C29.9996 27.3795 32.5438 23.7108 32.5438 19.685C32.5415 16.8954 31.4323 14.2207 29.4597 12.2482C27.4872 10.2756 24.8169 9.1664 22.0273 9.16406ZM22.0229 15.011C23.2625 15.011 24.4514 15.5034 25.3279 16.38C26.2045 17.2565 26.6969 18.4454 26.6969 19.685C26.6969 20.9246 26.2045 22.1135 25.3279 22.99C24.4514 23.8666 23.2625 24.359 22.0229 24.359C20.7833 24.359 19.5944 23.8666 18.7179 22.99C17.8413 22.1135 17.3489 20.9246 17.3489 19.685C17.3489 18.4454 17.8413 17.2565 18.7179 16.38C19.5944 15.5034 20.7833 15.011 22.0229 15.011Z" fill="white"/>
</svg>
